{
	"asset":{
		"generator":"Khronos glTF Blender I/O v5.1.18",
		"version":"2.0"
	},
	"scene":0,
	"scenes":[
		{
			"name":"Scene",
			"nodes":[
				0
			]
		}
	],
	"nodes":[
		{
			"mesh":0,
			"name":"HEAD.001"
		}
	],
	"materials":[
		{
			"doubleSided":true,
			"name":"painteryShader.001",
			"normalTexture":{
				"index":0
			},
			"pbrMetallicRoughness":{
				"baseColorTexture":{
					"index":1
				},
				"metallicFactor":0,
				"roughnessFactor":0.5
			}
		}
	],
	"meshes":[
		{
			"name":"Cube.002",
			"primitives":[
				{
					"attributes":{
						"POSITION":0,
						"NORMAL":1,
						"TEXCOORD_0":2
					},
					"indices":3,
					"material":0
				}
			]
		}
	],
	"textures":[
		{
			"sampler":0,
			"source":0
		},
		{
			"sampler":0,
			"source":1
		}
	],
	"images":[
		{
			"mimeType":"image/png",
			"name":"normals-baked",
			"uri":"textures/normals-baked.png"
		},
		{
			"mimeType":"image/png",
			"name":"color",
			"uri":"textures/color.png"
		}
	],
	"accessors":[
		{
			"bufferView":0,
			"componentType":5126,
			"count":1961,
			"max":[
				0.34584224224090576,
				0.6599177718162537,
				0.3809951841831207
			],
			"min":[
				-0.34584224224090576,
				-0.39990234375,
				-0.3809951841831207
			],
			"type":"VEC3"
		},
		{
			"bufferView":1,
			"componentType":5126,
			"count":1961,
			"type":"VEC3"
		},
		{
			"bufferView":2,
			"componentType":5126,
			"count":1961,
			"type":"VEC2"
		},
		{
			"bufferView":3,
			"componentType":5123,
			"count":10752,
			"type":"SCALAR"
		}
	],
	"bufferViews":[
		{
			"buffer":0,
			"byteLength":23532,
			"byteOffset":0,
			"target":34962
		},
		{
			"buffer":0,
			"byteLength":23532,
			"byteOffset":23532,
			"target":34962
		},
		{
			"buffer":0,
			"byteLength":15688,
			"byteOffset":47064,
			"target":34962
		},
		{
			"buffer":0,
			"byteLength":21504,
			"byteOffset":62752,
			"target":34963
		}
	],
	"samplers":[
		{
			"magFilter":9729,
			"minFilter":9987
		}
	],
	"buffers":[
		{
			"byteLength":84256,
			"uri":"champignon-painted.bin"
		}
	]
}
