{
	"asset":{
		"generator":"Khronos glTF Blender I/O v5.1.19",
		"version":"2.0"
	},
	"scene":0,
	"scenes":[
		{
			"name":"Scene",
			"nodes":[
				0,
				1,
				2,
				3,
				4,
				5,
				6,
				7,
				8,
				9,
				10,
				11,
				12
			]
		}
	],
	"nodes":[
		{
			"mesh":0,
			"name":"edelweiss_petal_1",
			"rotation":[
				-0.11350645869970322,
				0.1642615646123886,
				0.2981482446193695,
				0.933403491973877
			],
			"scale":[
				0.05004142224788666,
				0.05004142224788666,
				0.05004141852259636
			],
			"translation":[
				-0.003318999893963337,
				0.10254278033971786,
				-0.023676812648773193
			]
		},
		{
			"name":"edelweiss_stem_1",
			"rotation":[
				-0.4475523829460144,
				-0.3177911639213562,
				0.6346601843833923,
				0.5439779758453369
			],
			"scale":[
				0.02465759962797165,
				0.0246575977653265,
				0.02465759962797165
			],
			"translation":[
				-1.7417827621102333e-05,
				1.2230186257511377e-05,
				-0.0009683370590209961
			]
		},
		{
			"mesh":1,
			"name":"edelweiss_leaf_1.1",
			"rotation":[
				0.05539833381772041,
				-0.6739920973777771,
				-0.08346308022737503,
				0.7319149971008301
			],
			"scale":[
				0.12627388536930084,
				0.10901614278554916,
				0.16145417094230652
			],
			"translation":[
				0.009029308333992958,
				0.04140916094183922,
				-0.012143552303314209
			]
		},
		{
			"mesh":2,
			"name":"edelweiss_leaf_2.1",
			"rotation":[
				-0.16398140788078308,
				0.8623489141464233,
				-0.16387905180454254,
				0.45012012124061584
			],
			"scale":[
				0.12627388536930084,
				0.10901614278554916,
				0.16145417094230652
			],
			"translation":[
				0.009460288099944592,
				0.04866445064544678,
				-0.012409567832946777
			]
		},
		{
			"mesh":3,
			"name":"edelweiss_leaf_3.1",
			"rotation":[
				0.08753839135169983,
				-0.9348246455192566,
				-0.0487041175365448,
				0.3406873345375061
			],
			"scale":[
				0.12627388536930084,
				0.10901614278554916,
				0.16145417094230652
			],
			"translation":[
				0.006829770281910896,
				0.06740100681781769,
				-0.01697641611099243
			]
		},
		{
			"mesh":4,
			"name":"edelweiss_petal_2",
			"rotation":[
				0.005365284159779549,
				0.12296682596206665,
				0.31293508410453796,
				0.9417653679847717
			],
			"scale":[
				0.07698525488376617,
				0.07698525488376617,
				0.07698526233434677
			],
			"translation":[
				-0.0033361122477799654,
				0.13989172875881195,
				0.004119753837585449
			]
		},
		{
			"name":"edelweiss_stem_2",
			"rotation":[
				-0.3779497444629669,
				-0.3955483138561249,
				0.5861241221427917,
				0.5976237654685974
			],
			"scale":[
				0.03278025612235069,
				0.032780252397060394,
				0.032780252397060394
			],
			"translation":[
				0,
				0,
				-0.0008889436721801758
			]
		},
		{
			"mesh":5,
			"name":"edelweiss_leaf_2.2",
			"rotation":[
				-0.12624435126781464,
				0.8837515115737915,
				0.002517996821552515,
				0.4505988359451294
			],
			"scale":[
				0.11268006265163422,
				0.09728018194437027,
				0.14407306909561157
			],
			"translation":[
				0.013684320263564587,
				0.06529971957206726,
				0.0003058910369873047
			]
		},
		{
			"mesh":6,
			"name":"edelweiss_leaf_3.2",
			"rotation":[
				0.05835474655032158,
				-0.8193290829658508,
				-0.11197634786367416,
				0.559245765209198
			],
			"scale":[
				0.1494530886411667,
				0.12902747094631195,
				0.19109119474887848
			],
			"translation":[
				0.011039971373975277,
				0.0832410678267479,
				0.0003058910369873047
			]
		},
		{
			"mesh":7,
			"name":"edelweiss_petal_3",
			"rotation":[
				0.21064193546772003,
				-0.1327318549156189,
				0.36320701241493225,
				0.8978267908096313
			],
			"scale":[
				0.06264699250459671,
				0.06264699250459671,
				0.0626470074057579
			],
			"translation":[
				0.02853713557124138,
				0.12098975479602814,
				0.03763008117675781
			]
		},
		{
			"name":"edelweiss_stem_3",
			"rotation":[
				-0.6374320387840271,
				-0.5838356614112854,
				0.19843092560768127,
				0.46199727058410645
			],
			"scale":[
				0.030748924240469933,
				0.030748924240469933,
				0.030748926103115082
			],
			"translation":[
				0.002337777055799961,
				-0.00021689757704734802,
				-0.00041556358337402344
			]
		},
		{
			"mesh":8,
			"name":"edelweiss_leaf_2.3",
			"rotation":[
				0.2381483018398285,
				-0.6921314597129822,
				-0.3440135717391968,
				0.588127613067627
			],
			"scale":[
				0.12934136390686035,
				0.11166436225175858,
				0.1653762310743332
			],
			"translation":[
				0.0221034474670887,
				0.05451340600848198,
				0.01908862590789795
			]
		},
		{
			"mesh":9,
			"name":"edelweiss_leaf_1.3",
			"rotation":[
				0.029513323679566383,
				0.7503480911254883,
				-0.0010169011075049639,
				0.6603829860687256
			],
			"scale":[
				0.15967777371406555,
				0.13785474002361298,
				0.204164519906044
			],
			"translation":[
				0.014906290918588638,
				0.03777031600475311,
				0.010927557945251465
			]
		}
	],
	"animations":[
		{
			"channels":[
				{
					"sampler":0,
					"target":{
						"node":2,
						"path":"scale"
					}
				},
				{
					"sampler":1,
					"target":{
						"node":3,
						"path":"scale"
					}
				},
				{
					"sampler":2,
					"target":{
						"node":4,
						"path":"scale"
					}
				},
				{
					"sampler":3,
					"target":{
						"node":7,
						"path":"scale"
					}
				},
				{
					"sampler":4,
					"target":{
						"node":8,
						"path":"scale"
					}
				},
				{
					"sampler":5,
					"target":{
						"node":11,
						"path":"scale"
					}
				},
				{
					"sampler":6,
					"target":{
						"node":12,
						"path":"scale"
					}
				}
			],
			"name":"grow",
			"samplers":[
				{
					"input":32,
					"interpolation":"LINEAR",
					"output":33
				},
				{
					"input":32,
					"interpolation":"LINEAR",
					"output":34
				},
				{
					"input":35,
					"interpolation":"LINEAR",
					"output":36
				},
				{
					"input":37,
					"interpolation":"LINEAR",
					"output":38
				},
				{
					"input":39,
					"interpolation":"LINEAR",
					"output":40
				},
				{
					"input":41,
					"interpolation":"LINEAR",
					"output":42
				},
				{
					"input":43,
					"interpolation":"LINEAR",
					"output":44
				}
			]
		}
	],
	"materials":[
		{
			"alphaMode":"BLEND",
			"doubleSided":true,
			"name":"Edelweiss",
			"pbrMetallicRoughness":{
				"baseColorTexture":{
					"index":0
				},
				"metallicFactor":0.5477272868156433
			}
		},
		{
			"alphaMode":"MASK",
			"doubleSided":true,
			"name":"edelweiss_leaf",
			"pbrMetallicRoughness":{
				"baseColorFactor":[
					1,
					1,
					1,
					0
				],
				"baseColorTexture":{
					"index":1
				},
				"metallicFactor":0.5022727251052856,
				"roughnessFactor":0.8045454621315002
			}
		},
		{
			"alphaMode":"MASK",
			"doubleSided":true,
			"name":"Material.001",
			"pbrMetallicRoughness":{
				"baseColorFactor":[
					1,
					1,
					1,
					0
				],
				"baseColorTexture":{
					"index":2
				},
				"metallicFactor":0.5022727251052856,
				"roughnessFactor":0.8045454621315002
			}
		},
		{
			"alphaMode":"MASK",
			"doubleSided":true,
			"name":"Material.002",
			"pbrMetallicRoughness":{
				"baseColorFactor":[
					1,
					1,
					1,
					0
				],
				"baseColorTexture":{
					"index":3
				},
				"metallicFactor":0.5022727251052856,
				"roughnessFactor":0.8045454621315002
			}
		},
		{
			"alphaMode":"MASK",
			"doubleSided":true,
			"name":"Material.005",
			"pbrMetallicRoughness":{
				"baseColorFactor":[
					1,
					1,
					1,
					0
				],
				"baseColorTexture":{
					"index":4
				},
				"metallicFactor":0.5022727251052856,
				"roughnessFactor":0.8045454621315002
			}
		},
		{
			"alphaMode":"MASK",
			"doubleSided":true,
			"name":"Material.006",
			"pbrMetallicRoughness":{
				"baseColorFactor":[
					1,
					1,
					1,
					0
				],
				"baseColorTexture":{
					"index":5
				},
				"metallicFactor":0.5022727251052856,
				"roughnessFactor":0.8045454621315002
			}
		},
		{
			"alphaMode":"MASK",
			"doubleSided":true,
			"name":"Material.007",
			"pbrMetallicRoughness":{
				"baseColorFactor":[
					1,
					1,
					1,
					0
				],
				"baseColorTexture":{
					"index":6
				},
				"metallicFactor":0.5022727251052856,
				"roughnessFactor":0.8045454621315002
			}
		}
	],
	"meshes":[
		{
			"name":"Edelweiss.001",
			"primitives":[
				{
					"attributes":{
						"POSITION":0,
						"NORMAL":1,
						"TEXCOORD_0":2
					},
					"indices":3,
					"material":0
				}
			]
		},
		{
			"name":"Aster leave.003",
			"primitives":[
				{
					"attributes":{
						"POSITION":4,
						"NORMAL":5,
						"TEXCOORD_0":6
					},
					"indices":7,
					"material":1
				}
			]
		},
		{
			"name":"Aster leave.012",
			"primitives":[
				{
					"attributes":{
						"POSITION":8,
						"NORMAL":9,
						"TEXCOORD_0":10
					},
					"indices":7,
					"material":2
				}
			]
		},
		{
			"name":"Aster leave.011",
			"primitives":[
				{
					"attributes":{
						"POSITION":11,
						"NORMAL":12,
						"TEXCOORD_0":13
					},
					"indices":7,
					"material":3
				}
			]
		},
		{
			"name":"Edelweiss",
			"primitives":[
				{
					"attributes":{
						"POSITION":14,
						"NORMAL":15,
						"TEXCOORD_0":16
					},
					"indices":3,
					"material":0
				}
			]
		},
		{
			"name":"Aster leave.006",
			"primitives":[
				{
					"attributes":{
						"POSITION":17,
						"NORMAL":18,
						"TEXCOORD_0":19
					},
					"indices":7,
					"material":4
				}
			]
		},
		{
			"name":"Aster leave.008",
			"primitives":[
				{
					"attributes":{
						"POSITION":20,
						"NORMAL":21,
						"TEXCOORD_0":22
					},
					"indices":7,
					"material":5
				}
			]
		},
		{
			"name":"Edelweiss.002",
			"primitives":[
				{
					"attributes":{
						"POSITION":23,
						"NORMAL":24,
						"TEXCOORD_0":25
					},
					"indices":3,
					"material":0
				}
			]
		},
		{
			"name":"Aster leave.009",
			"primitives":[
				{
					"attributes":{
						"POSITION":26,
						"NORMAL":27,
						"TEXCOORD_0":28
					},
					"indices":7,
					"material":1
				}
			]
		},
		{
			"name":"Aster leave.010",
			"primitives":[
				{
					"attributes":{
						"POSITION":29,
						"NORMAL":30,
						"TEXCOORD_0":31
					},
					"indices":7,
					"material":6
				}
			]
		}
	],
	"textures":[
		{
			"sampler":0,
			"source":0
		},
		{
			"sampler":1,
			"source":1
		},
		{
			"sampler":1,
			"source":1
		},
		{
			"sampler":1,
			"source":1
		},
		{
			"sampler":1,
			"source":1
		},
		{
			"sampler":1,
			"source":1
		},
		{
			"sampler":1,
			"source":1
		}
	],
	"images":[
		{
			"mimeType":"image/png",
			"name":"Edelweiss",
			"uri":"Edelweiss.png"
		},
		{
			"mimeType":"image/png",
			"name":"Edelweiss_leaf",
			"uri":"Edelweiss_leaf.png"
		}
	],
	"accessors":[
		{
			"bufferView":0,
			"componentType":5126,
			"count":40,
			"max":[
				0.5178571343421936,
				0.2053443193435669,
				0.4541666805744171
			],
			"min":[
				-0.4821428656578064,
				-0.2161833643913269,
				-0.5458333492279053
			],
			"type":"VEC3"
		},
		{
			"bufferView":1,
			"componentType":5126,
			"count":40,
			"type":"VEC3"
		},
		{
			"bufferView":2,
			"componentType":5126,
			"count":40,
			"type":"VEC2"
		},
		{
			"bufferView":3,
			"componentType":5123,
			"count":174,
			"type":"SCALAR"
		},
		{
			"bufferView":4,
			"componentType":5126,
			"count":83,
			"max":[
				0.0004903252702206373,
				0.09155494719743729,
				0.011374451220035553
			],
			"min":[
				-0.08297975361347198,
				-0.0007712476653978229,
				-0.018188467249274254
			],
			"type":"VEC3"
		},
		{
			"bufferView":5,
			"componentType":5126,
			"count":83,
			"type":"VEC3"
		},
		{
			"bufferView":6,
			"componentType":5126,
			"count":83,
			"type":"VEC2"
		},
		{
			"bufferView":7,
			"componentType":5123,
			"count":390,
			"type":"SCALAR"
		},
		{
			"bufferView":8,
			"componentType":5126,
			"count":83,
			"max":[
				0.0004903252702206373,
				0.09155494719743729,
				0.011374451220035553
			],
			"min":[
				-0.08297975361347198,
				-0.0007712476653978229,
				-0.018188467249274254
			],
			"type":"VEC3"
		},
		{
			"bufferView":9,
			"componentType":5126,
			"count":83,
			"type":"VEC3"
		},
		{
			"bufferView":10,
			"componentType":5126,
			"count":83,
			"type":"VEC2"
		},
		{
			"bufferView":11,
			"componentType":5126,
			"count":83,
			"max":[
				0.0004903252702206373,
				0.09155494719743729,
				0.011374451220035553
			],
			"min":[
				-0.08297975361347198,
				-0.0007712476653978229,
				-0.018188467249274254
			],
			"type":"VEC3"
		},
		{
			"bufferView":12,
			"componentType":5126,
			"count":83,
			"type":"VEC3"
		},
		{
			"bufferView":13,
			"componentType":5126,
			"count":83,
			"type":"VEC2"
		},
		{
			"bufferView":14,
			"componentType":5126,
			"count":40,
			"max":[
				0.5178571343421936,
				0.2053443193435669,
				0.4541666805744171
			],
			"min":[
				-0.4821428656578064,
				-0.2161833643913269,
				-0.5458333492279053
			],
			"type":"VEC3"
		},
		{
			"bufferView":15,
			"componentType":5126,
			"count":40,
			"type":"VEC3"
		},
		{
			"bufferView":16,
			"componentType":5126,
			"count":40,
			"type":"VEC2"
		},
		{
			"bufferView":17,
			"componentType":5126,
			"count":83,
			"max":[
				0.0004903252702206373,
				0.09155494719743729,
				0.011374451220035553
			],
			"min":[
				-0.08297975361347198,
				-0.0007712476653978229,
				-0.018188467249274254
			],
			"type":"VEC3"
		},
		{
			"bufferView":18,
			"componentType":5126,
			"count":83,
			"type":"VEC3"
		},
		{
			"bufferView":19,
			"componentType":5126,
			"count":83,
			"type":"VEC2"
		},
		{
			"bufferView":20,
			"componentType":5126,
			"count":83,
			"max":[
				0.0004903252702206373,
				0.09155494719743729,
				0.011374451220035553
			],
			"min":[
				-0.08297975361347198,
				-0.0007712476653978229,
				-0.018188467249274254
			],
			"type":"VEC3"
		},
		{
			"bufferView":21,
			"componentType":5126,
			"count":83,
			"type":"VEC3"
		},
		{
			"bufferView":22,
			"componentType":5126,
			"count":83,
			"type":"VEC2"
		},
		{
			"bufferView":23,
			"componentType":5126,
			"count":40,
			"max":[
				0.5178571343421936,
				0.2053443193435669,
				0.4541666805744171
			],
			"min":[
				-0.4821428656578064,
				-0.2161833643913269,
				-0.5458333492279053
			],
			"type":"VEC3"
		},
		{
			"bufferView":24,
			"componentType":5126,
			"count":40,
			"type":"VEC3"
		},
		{
			"bufferView":25,
			"componentType":5126,
			"count":40,
			"type":"VEC2"
		},
		{
			"bufferView":26,
			"componentType":5126,
			"count":83,
			"max":[
				0.0004903252702206373,
				0.09155494719743729,
				0.011374451220035553
			],
			"min":[
				-0.08297975361347198,
				-0.0007712476653978229,
				-0.018188467249274254
			],
			"type":"VEC3"
		},
		{
			"bufferView":27,
			"componentType":5126,
			"count":83,
			"type":"VEC3"
		},
		{
			"bufferView":28,
			"componentType":5126,
			"count":83,
			"type":"VEC2"
		},
		{
			"bufferView":29,
			"componentType":5126,
			"count":83,
			"max":[
				0.0004903252702206373,
				0.09155494719743729,
				0.011374451220035553
			],
			"min":[
				-0.08297975361347198,
				-0.0007712476653978229,
				-0.018188467249274254
			],
			"type":"VEC3"
		},
		{
			"bufferView":30,
			"componentType":5126,
			"count":83,
			"type":"VEC3"
		},
		{
			"bufferView":31,
			"componentType":5126,
			"count":83,
			"type":"VEC2"
		},
		{
			"bufferView":32,
			"componentType":5126,
			"count":22,
			"max":[
				2.0416666666666665
			],
			"min":[
				1.1666666666666667
			],
			"type":"SCALAR"
		},
		{
			"bufferView":33,
			"componentType":5126,
			"count":22,
			"type":"VEC3"
		},
		{
			"bufferView":34,
			"componentType":5126,
			"count":22,
			"type":"VEC3"
		},
		{
			"bufferView":35,
			"componentType":5126,
			"count":13,
			"max":[
				2.0416666666666665
			],
			"min":[
				1.5416666666666667
			],
			"type":"SCALAR"
		},
		{
			"bufferView":36,
			"componentType":5126,
			"count":13,
			"type":"VEC3"
		},
		{
			"bufferView":37,
			"componentType":5126,
			"count":25,
			"max":[
				2.1666666666666665
			],
			"min":[
				1.1666666666666667
			],
			"type":"SCALAR"
		},
		{
			"bufferView":38,
			"componentType":5126,
			"count":25,
			"type":"VEC3"
		},
		{
			"bufferView":39,
			"componentType":5126,
			"count":19,
			"max":[
				2.1666666666666665
			],
			"min":[
				1.4166666666666667
			],
			"type":"SCALAR"
		},
		{
			"bufferView":40,
			"componentType":5126,
			"count":19,
			"type":"VEC3"
		},
		{
			"bufferView":41,
			"componentType":5126,
			"count":14,
			"max":[
				1.4583333333333333
			],
			"min":[
				0.9166666666666666
			],
			"type":"SCALAR"
		},
		{
			"bufferView":42,
			"componentType":5126,
			"count":14,
			"type":"VEC3"
		},
		{
			"bufferView":43,
			"componentType":5126,
			"count":21,
			"max":[
				1.4583333333333333
			],
			"min":[
				0.625
			],
			"type":"SCALAR"
		},
		{
			"bufferView":44,
			"componentType":5126,
			"count":21,
			"type":"VEC3"
		}
	],
	"bufferViews":[
		{
			"buffer":0,
			"byteLength":480,
			"byteOffset":0,
			"target":34962
		},
		{
			"buffer":0,
			"byteLength":480,
			"byteOffset":480,
			"target":34962
		},
		{
			"buffer":0,
			"byteLength":320,
			"byteOffset":960,
			"target":34962
		},
		{
			"buffer":0,
			"byteLength":348,
			"byteOffset":1280,
			"target":34963
		},
		{
			"buffer":0,
			"byteLength":996,
			"byteOffset":1628,
			"target":34962
		},
		{
			"buffer":0,
			"byteLength":996,
			"byteOffset":2624,
			"target":34962
		},
		{
			"buffer":0,
			"byteLength":664,
			"byteOffset":3620,
			"target":34962
		},
		{
			"buffer":0,
			"byteLength":780,
			"byteOffset":4284,
			"target":34963
		},
		{
			"buffer":0,
			"byteLength":996,
			"byteOffset":5064,
			"target":34962
		},
		{
			"buffer":0,
			"byteLength":996,
			"byteOffset":6060,
			"target":34962
		},
		{
			"buffer":0,
			"byteLength":664,
			"byteOffset":7056,
			"target":34962
		},
		{
			"buffer":0,
			"byteLength":996,
			"byteOffset":7720,
			"target":34962
		},
		{
			"buffer":0,
			"byteLength":996,
			"byteOffset":8716,
			"target":34962
		},
		{
			"buffer":0,
			"byteLength":664,
			"byteOffset":9712,
			"target":34962
		},
		{
			"buffer":0,
			"byteLength":480,
			"byteOffset":10376,
			"target":34962
		},
		{
			"buffer":0,
			"byteLength":480,
			"byteOffset":10856,
			"target":34962
		},
		{
			"buffer":0,
			"byteLength":320,
			"byteOffset":11336,
			"target":34962
		},
		{
			"buffer":0,
			"byteLength":996,
			"byteOffset":11656,
			"target":34962
		},
		{
			"buffer":0,
			"byteLength":996,
			"byteOffset":12652,
			"target":34962
		},
		{
			"buffer":0,
			"byteLength":664,
			"byteOffset":13648,
			"target":34962
		},
		{
			"buffer":0,
			"byteLength":996,
			"byteOffset":14312,
			"target":34962
		},
		{
			"buffer":0,
			"byteLength":996,
			"byteOffset":15308,
			"target":34962
		},
		{
			"buffer":0,
			"byteLength":664,
			"byteOffset":16304,
			"target":34962
		},
		{
			"buffer":0,
			"byteLength":480,
			"byteOffset":16968,
			"target":34962
		},
		{
			"buffer":0,
			"byteLength":480,
			"byteOffset":17448,
			"target":34962
		},
		{
			"buffer":0,
			"byteLength":320,
			"byteOffset":17928,
			"target":34962
		},
		{
			"buffer":0,
			"byteLength":996,
			"byteOffset":18248,
			"target":34962
		},
		{
			"buffer":0,
			"byteLength":996,
			"byteOffset":19244,
			"target":34962
		},
		{
			"buffer":0,
			"byteLength":664,
			"byteOffset":20240,
			"target":34962
		},
		{
			"buffer":0,
			"byteLength":996,
			"byteOffset":20904,
			"target":34962
		},
		{
			"buffer":0,
			"byteLength":996,
			"byteOffset":21900,
			"target":34962
		},
		{
			"buffer":0,
			"byteLength":664,
			"byteOffset":22896,
			"target":34962
		},
		{
			"buffer":0,
			"byteLength":88,
			"byteOffset":23560
		},
		{
			"buffer":0,
			"byteLength":264,
			"byteOffset":23648
		},
		{
			"buffer":0,
			"byteLength":264,
			"byteOffset":23912
		},
		{
			"buffer":0,
			"byteLength":52,
			"byteOffset":24176
		},
		{
			"buffer":0,
			"byteLength":156,
			"byteOffset":24228
		},
		{
			"buffer":0,
			"byteLength":100,
			"byteOffset":24384
		},
		{
			"buffer":0,
			"byteLength":300,
			"byteOffset":24484
		},
		{
			"buffer":0,
			"byteLength":76,
			"byteOffset":24784
		},
		{
			"buffer":0,
			"byteLength":228,
			"byteOffset":24860
		},
		{
			"buffer":0,
			"byteLength":56,
			"byteOffset":25088
		},
		{
			"buffer":0,
			"byteLength":168,
			"byteOffset":25144
		},
		{
			"buffer":0,
			"byteLength":84,
			"byteOffset":25312
		},
		{
			"buffer":0,
			"byteLength":252,
			"byteOffset":25396
		}
	],
	"samplers":[
		{
			"magFilter":9729,
			"minFilter":9987
		},
		{
			"magFilter":9729,
			"minFilter":9987,
			"wrapS":33071,
			"wrapT":33071
		}
	],
	"buffers":[
		{
			"byteLength":25648,
			"uri":"Edelweiss.bin"
		}
	]
}
