{
	"asset":{
		"generator":"Khronos glTF Blender I/O v5.1.19",
		"version":"2.0"
	},
	"scene":0,
	"scenes":[
		{
			"extras":{
				"uuid":"6174d58f-df21-4bad-876a-1f2466b40220",
				"assets reported":{},
				"assets used":{},
				"scatter_properties":{},
				"ps_scene_data":{
					"color_history_palette":{
						"name":"Paint System History",
						"type":"Palette"
					},
					"last_selected_object":{
						"name":"Cube",
						"type":"Object"
					},
					"last_selected_material":{
						"name":"Trunk",
						"type":"Material"
					},
					"hue":0.32730337977409363,
					"saturation":0.8880184292793274,
					"value":1.0,
					"hex_color":"#24FF1C",
					"temp_materials":[
						{
							"material":{
								"name":"New Group Material.001",
								"type":"Material"
							},
							"enabled":1
						}
					]
				},
				"BSBST_settings":{
					"preset_object":{},
					"edit_toggle":0
				}
			},
			"name":"Scene",
			"nodes":[
				0
			]
		}
	],
	"nodes":[
		{
			"mesh":0,
			"name":"Cube"
		}
	],
	"materials":[
		{
			"extras":{
				"ps_mat_data":{
					"groups":[
						{
							"name":"New Group",
							"node_tree":{
								"name":"PS New Group (New Group Material.002)",
								"type":"ShaderNodeTree"
							},
							"template":3,
							"coord_type":1,
							"uv_map_name":"UVMap",
							"channels":[
								{
									"name":"Normal",
									"node_tree":{
										"name":"PS Normal.001",
										"type":"ShaderNodeTree"
									},
									"type":2,
									"disable_output_transform":0,
									"use_alpha":0,
									"normalize_input":1,
									"color_space":1,
									"default_value":1,
									"use_space_transform_input":1,
									"use_space_transform_output":1,
									"bake_image":{},
									"layers":[
										{
											"id":0,
											"name":"Normal",
											"layer_name":"Normal",
											"uid":"2e31014d-a823-495d-be73-49ebef89b0c1",
											"parent_id":-1,
											"type":9,
											"order":2,
											"auto_update_node_tree":1,
											"geometry_type":3,
											"normalize_normal":1,
											"image":{},
											"node_tree":{
												"name":"PS Normal (2e31014d)",
												"type":"ShaderNodeTree"
											},
											"empty_object":{}
										},
										{
											"id":1,
											"name":"Image",
											"layer_name":"Image",
											"uid":"e4109f49-0a49-411d-b11c-baa7777f0d0b",
											"parent_id":-1,
											"type":1,
											"order":1,
											"auto_update_node_tree":1,
											"node_tree":{
												"name":"PS Image (e4109f49)",
												"type":"ShaderNodeTree"
											},
											"coord_type":1,
											"uv_map_name":"UVMap",
											"image":{
												"name":"Image.002",
												"type":"Image"
											},
											"empty_object":{},
											"enabled":1,
											"blend_mode":0
										}
									],
									"next_id":5,
									"active_index":1
								}
							],
							"active_index":0
						}
					],
					"active_index":0,
					"preview_channel":0,
					"original_node_name":"Diffuse BSDF",
					"original_socket_name":"BSDF",
					"original_view_transform":"Standard"
				},
				"paint_system":{}
			},
			"name":"Trunk.001",
			"normalTexture":{
				"index":0
			},
			"pbrMetallicRoughness":{
				"baseColorFactor":[
					0.14126333594322205,
					0.06480327993631363,
					0.05780543386936188,
					1
				],
				"metallicFactor":0
			}
		},
		{
			"alphaMode":"BLEND",
			"doubleSided":true,
			"extras":{
				"ps_mat_data":{},
				"paint_system":{}
			},
			"name":"PineLeaves",
			"pbrMetallicRoughness":{
				"baseColorTexture":{
					"index":1
				},
				"metallicFactor":0.5340909361839294
			}
		}
	],
	"meshes":[
		{
			"name":"Cube",
			"primitives":[
				{
					"attributes":{
						"POSITION":0,
						"NORMAL":1,
						"TEXCOORD_0":2,
						"TEXCOORD_1":3,
						"TANGENT":4
					},
					"indices":5,
					"material":0
				},
				{
					"attributes":{
						"POSITION":6,
						"NORMAL":7,
						"TEXCOORD_0":8,
						"TEXCOORD_1":9,
						"TANGENT":10
					},
					"indices":11,
					"material":1
				}
			]
		}
	],
	"textures":[
		{
			"sampler":0,
			"source":0
		},
		{
			"sampler":1,
			"source":1
		}
	],
	"images":[
		{
			"mimeType":"image/png",
			"name":"Normals",
			"uri":"Normals.png"
		},
		{
			"mimeType":"image/png",
			"name":"leaf_texture",
			"uri":"leaf_texture.png"
		}
	],
	"accessors":[
		{
			"bufferView":0,
			"componentType":5126,
			"count":20,
			"max":[
				0.49589407444000244,
				21.623401641845703,
				0.49589407444000244
			],
			"min":[
				-0.49589407444000244,
				-0.013250350952148438,
				-0.49589407444000244
			],
			"type":"VEC3"
		},
		{
			"bufferView":1,
			"componentType":5126,
			"count":20,
			"type":"VEC3"
		},
		{
			"bufferView":2,
			"componentType":5126,
			"count":20,
			"type":"VEC2"
		},
		{
			"bufferView":3,
			"componentType":5126,
			"count":20,
			"type":"VEC2"
		},
		{
			"bufferView":4,
			"componentType":5126,
			"count":20,
			"type":"VEC4"
		},
		{
			"bufferView":5,
			"componentType":5123,
			"count":30,
			"type":"SCALAR"
		},
		{
			"bufferView":6,
			"componentType":5126,
			"count":2352,
			"max":[
				7.307033538818359,
				21.155834197998047,
				6.407801151275635
			],
			"min":[
				-7.912530422210693,
				2.1283118724823,
				-7.069552898406982
			],
			"type":"VEC3"
		},
		{
			"bufferView":7,
			"componentType":5126,
			"count":2352,
			"type":"VEC3"
		},
		{
			"bufferView":8,
			"componentType":5126,
			"count":2352,
			"type":"VEC2"
		},
		{
			"bufferView":9,
			"componentType":5126,
			"count":2352,
			"type":"VEC2"
		},
		{
			"bufferView":10,
			"componentType":5126,
			"count":2352,
			"type":"VEC4"
		},
		{
			"bufferView":11,
			"componentType":5123,
			"count":8064,
			"type":"SCALAR"
		}
	],
	"bufferViews":[
		{
			"buffer":0,
			"byteLength":240,
			"byteOffset":0,
			"target":34962
		},
		{
			"buffer":0,
			"byteLength":240,
			"byteOffset":240,
			"target":34962
		},
		{
			"buffer":0,
			"byteLength":160,
			"byteOffset":480,
			"target":34962
		},
		{
			"buffer":0,
			"byteLength":160,
			"byteOffset":640,
			"target":34962
		},
		{
			"buffer":0,
			"byteLength":320,
			"byteOffset":800,
			"target":34962
		},
		{
			"buffer":0,
			"byteLength":60,
			"byteOffset":1120,
			"target":34963
		},
		{
			"buffer":0,
			"byteLength":28224,
			"byteOffset":1180,
			"target":34962
		},
		{
			"buffer":0,
			"byteLength":28224,
			"byteOffset":29404,
			"target":34962
		},
		{
			"buffer":0,
			"byteLength":18816,
			"byteOffset":57628,
			"target":34962
		},
		{
			"buffer":0,
			"byteLength":18816,
			"byteOffset":76444,
			"target":34962
		},
		{
			"buffer":0,
			"byteLength":37632,
			"byteOffset":95260,
			"target":34962
		},
		{
			"buffer":0,
			"byteLength":16128,
			"byteOffset":132892,
			"target":34963
		}
	],
	"samplers":[
		{
			"magFilter":9729,
			"minFilter":9987
		},
		{
			"magFilter":9729,
			"minFilter":9987,
			"wrapS":33071,
			"wrapT":33071
		}
	],
	"buffers":[
		{
			"byteLength":149020,
			"uri":"PineeTree.bin"
		}
	]
}
