<svg width="926" height="648" viewBox="0 0 926 648" fill="none" xmlns="http://www.w3.org/2000/svg">
<rect width="926" height="648" rx="20" fill="white"/>
<rect x="30" y="65" width="410" height="2" fill="#F6BACB"/>
<rect x="30" y="95" width="410" height="2" fill="#F6BACB"/>
<rect x="30" y="125" width="410" height="2" fill="#F6BACB"/>
<rect x="30" y="155" width="410" height="2" fill="#F6BACB"/>
<rect x="30" y="185" width="410" height="2" fill="#F6BACB"/>
<rect x="30" y="215" width="410" height="2" fill="#F6BACB"/>
<rect x="30" y="245" width="410" height="2" fill="#F6BACB"/>
<rect x="30" y="275" width="410" height="2" fill="#F6BACB"/>
<rect x="30" y="305" width="410" height="2" fill="#F6BACB"/>
<rect x="30" y="335" width="410" height="2" fill="#F6BACB"/>
<rect x="30" y="365" width="410" height="2" fill="#F6BACB"/>
<rect x="30" y="395" width="410" height="2" fill="#F6BACB"/>
<rect x="30" y="425" width="410" height="2" fill="#F6BACB"/>
<rect x="30" y="455" width="410" height="2" fill="#F6BACB"/>
<rect x="30" y="485" width="410" height="2" fill="#F6BACB"/>
<rect x="30" y="515" width="410" height="2" fill="#F6BACB"/>
<rect x="30" y="545" width="410" height="2" fill="#F6BACB"/>
<rect x="30" y="575" width="410" height="2" fill="#F6BACB"/>
</svg>
