<svg width="470" height="648" viewBox="0 0 470 648" fill="none" xmlns="http://www.w3.org/2000/svg">
<rect width="470" height="648" rx="20" fill="#F9EED2"/>
<rect x="30" y="60" width="410" height="2" fill="#DC4543"/>
<rect x="30" y="95" width="410" height="2" fill="#DC4543"/>
<rect x="30" y="130" width="410" height="2" fill="#DC4543"/>
<rect x="30" y="165" width="410" height="2" fill="#DC4543"/>
<rect x="30" y="200" width="410" height="2" fill="#DC4543"/>
<rect x="30" y="235" width="410" height="2" fill="#DC4543"/>
<rect x="30" y="270" width="410" height="2" fill="#DC4543"/>
<rect x="30" y="305" width="410" height="2" fill="#DC4543"/>
<rect x="30" y="340" width="410" height="2" fill="#DC4543"/>
<rect x="30" y="375" width="410" height="2" fill="#DC4543"/>
<rect x="30" y="410" width="410" height="2" fill="#DC4543"/>
<rect x="30" y="445" width="410" height="2" fill="#DC4543"/>
<rect x="30" y="480" width="410" height="2" fill="#DC4543"/>
<rect x="30" y="515" width="410" height="2" fill="#DC4543"/>
<rect x="30" y="550" width="410" height="2" fill="#DC4543"/>
<rect x="30" y="585" width="410" height="2" fill="#DC4543"/>
</svg>
