{
	"asset":{
		"generator":"Khronos glTF Blender I/O v5.1.19",
		"version":"2.0"
	},
	"scene":0,
	"scenes":[
		{
			"name":"Scene",
			"nodes":[
				0,
				1,
				2,
				3,
				4,
				5,
				6,
				7,
				8,
				9,
				10,
				11,
				12,
				13,
				14,
				15
			]
		}
	],
	"nodes":[
		{
			"mesh":0,
			"name":"Aster_petal_1",
			"rotation":[
				-0.14024575054645538,
				-0.0807579755783081,
				0.05131244286894798,
				0.9854828715324402
			],
			"scale":[
				0.13542459905147552,
				0.1354246735572815,
				0.1354246437549591
			],
			"translation":[
				-0.049632422626018524,
				0.34356600046157837,
				-0.027825335040688515
			]
		},
		{
			"mesh":1,
			"name":"Aster_leaf_1",
			"scale":[
				0.19386960566043854,
				0.19386960566043854,
				0.19386960566043854
			],
			"translation":[
				0.00636317627504468,
				0.06022818759083748,
				-8.104788139462471e-05
			]
		},
		{
			"mesh":0,
			"name":"Aster_petal_2",
			"rotation":[
				-0.30762654542922974,
				-0.011432801373302937,
				-0.18388120830059052,
				0.933500349521637
			],
			"scale":[
				0.040902331471443176,
				0.040902335196733475,
				0.04090235009789467
			],
			"translation":[
				0.07220622152090073,
				0.40543732047080994,
				-0.004296611994504929
			]
		},
		{
			"mesh":0,
			"name":"Aster_petal_3",
			"rotation":[
				-0.38776952028274536,
				0.5814706087112427,
				0.0569242499768734,
				0.7129420638084412
			],
			"scale":[
				0.04700323939323425,
				0.04700325056910515,
				0.04700323939323425
			],
			"translation":[
				-0.058314017951488495,
				0.40697696805000305,
				0.017371011897921562
			]
		},
		{
			"mesh":0,
			"name":"Aster_petal_5",
			"rotation":[
				0.25036942958831787,
				-0.9191988110542297,
				0.005587841384112835,
				0.3039037585258484
			],
			"scale":[
				0.08664093166589737,
				0.08664091676473618,
				0.08664094656705856
			],
			"translation":[
				-0.03171106427907944,
				0.450701504945755,
				-0.010498073883354664
			]
		},
		{
			"mesh":0,
			"name":"Aster_petal_6",
			"rotation":[
				0.11008254438638687,
				0.5123947262763977,
				-0.32792922854423523,
				0.7859999537467957
			],
			"scale":[
				0.065660260617733,
				0.0656602755188942,
				0.0656602531671524
			],
			"translation":[
				0.03633493930101395,
				0.48472848534584045,
				-4.8209913074970245e-05
			]
		},
		{
			"mesh":0,
			"name":"Aster_petal_4",
			"rotation":[
				-0.04924391582608223,
				-0.05979086458683014,
				-0.24952423572540283,
				0.9652656316757202
			],
			"scale":[
				0.058574236929416656,
				0.05857424437999725,
				0.05857425928115845
			],
			"translation":[
				0.044618941843509674,
				0.4525074064731598,
				-0.006497340276837349
			]
		},
		{
			"name":"Aster_branch_1",
			"rotation":[
				0,
				0,
				0.7071067690849304,
				0.7071068286895752
			],
			"scale":[
				0.04410529136657715,
				0.04410529136657715,
				0.04410529136657715
			]
		},
		{
			"name":"Aster_branch_3",
			"rotation":[
				0,
				0,
				0.7071067690849304,
				0.7071068286895752
			],
			"scale":[
				0.04410529136657715,
				0.04410529136657715,
				0.04410529136657715
			]
		},
		{
			"name":"Aster_branch_4",
			"rotation":[
				0,
				0,
				0.7071067690849304,
				0.7071068286895752
			],
			"scale":[
				0.04410529136657715,
				0.04410529136657715,
				0.04410529136657715
			]
		},
		{
			"name":"Aster_branch_5",
			"rotation":[
				0,
				0,
				0.7071067690849304,
				0.7071068286895752
			],
			"scale":[
				0.04410529136657715,
				0.04410529136657715,
				0.04410529136657715
			]
		},
		{
			"name":"Aster_branch_6",
			"rotation":[
				0,
				0,
				0.7071067690849304,
				0.7071068286895752
			],
			"scale":[
				0.04410529136657715,
				0.04410529136657715,
				0.04410529136657715
			]
		},
		{
			"name":"Aster_branch_2",
			"rotation":[
				0.6368610858917236,
				0.6368609666824341,
				0.3072589635848999,
				0.3072589933872223
			],
			"scale":[
				0.04410529136657715,
				0.04410529136657715,
				0.04410529136657715
			],
			"translation":[
				-0.020017918199300766,
				-0.10148052126169205,
				0.0060170418582856655
			]
		},
		{
			"mesh":2,
			"name":"Aster_leaf_2",
			"rotation":[
				-0.10950721800327301,
				-0.9637771844863892,
				-0.02745542675256729,
				0.24163630604743958
			],
			"scale":[
				0.3075920641422272,
				0.26555371284484863,
				0.39328813552856445
			],
			"translation":[
				0.004066848661750555,
				0.12316104769706726,
				-0.0053227487951517105
			]
		},
		{
			"mesh":3,
			"name":"Aster_leaf_3",
			"rotation":[
				-0.08011282980442047,
				-0.2913896441459656,
				0.0795459896326065,
				0.9499192833900452
			],
			"scale":[
				0.3075920641422272,
				0.26555371284484863,
				0.39328813552856445
			],
			"translation":[
				-0.004293075762689114,
				0.2382383644580841,
				0.003761996515095234
			]
		},
		{
			"mesh":4,
			"name":"Aster_leaf_4",
			"rotation":[
				0.09557117521762848,
				0.9911705851554871,
				0.060098081827163696,
				0.06953581422567368
			],
			"scale":[
				0.3075920641422272,
				0.26555371284484863,
				0.39328813552856445
			],
			"translation":[
				-0.0033647925592958927,
				0.25925323367118835,
				-0.0016032344428822398
			]
		}
	],
	"animations":[
		{
			"channels":[
				{
					"sampler":0,
					"target":{
						"node":1,
						"path":"scale"
					}
				}
			],
			"name":"Aster leave.002Action",
			"samplers":[
				{
					"input":17,
					"interpolation":"LINEAR",
					"output":18
				}
			]
		},
		{
			"channels":[
				{
					"sampler":0,
					"target":{
						"node":2,
						"path":"scale"
					}
				}
			],
			"name":"aster.002Action",
			"samplers":[
				{
					"input":19,
					"interpolation":"LINEAR",
					"output":20
				}
			]
		},
		{
			"channels":[
				{
					"sampler":0,
					"target":{
						"node":13,
						"path":"scale"
					}
				}
			],
			"name":"Aster leave.002Action.002",
			"samplers":[
				{
					"input":21,
					"interpolation":"LINEAR",
					"output":22
				}
			]
		},
		{
			"channels":[
				{
					"sampler":0,
					"target":{
						"node":14,
						"path":"scale"
					}
				}
			],
			"name":"Aster leave.002Action.004",
			"samplers":[
				{
					"input":23,
					"interpolation":"LINEAR",
					"output":24
				}
			]
		},
		{
			"channels":[
				{
					"sampler":0,
					"target":{
						"node":15,
						"path":"scale"
					}
				}
			],
			"name":"Aster leave.002Action.006",
			"samplers":[
				{
					"input":23,
					"interpolation":"LINEAR",
					"output":25
				}
			]
		}
	],
	"materials":[
		{
			"alphaMode":"MASK",
			"doubleSided":true,
			"name":"aster",
			"pbrMetallicRoughness":{
				"baseColorFactor":[
					1,
					1,
					1,
					0
				],
				"baseColorTexture":{
					"index":0
				},
				"metallicFactor":0,
				"roughnessFactor":0.45000001788139343
			}
		},
		{
			"alphaMode":"MASK",
			"doubleSided":true,
			"name":"Aster Leave 3",
			"pbrMetallicRoughness":{
				"baseColorFactor":[
					1,
					1,
					1,
					0
				],
				"baseColorTexture":{
					"index":1
				},
				"metallicFactor":0,
				"roughnessFactor":0.5
			}
		}
	],
	"meshes":[
		{
			"name":"aster.001",
			"primitives":[
				{
					"attributes":{
						"POSITION":0,
						"NORMAL":1,
						"TEXCOORD_0":2
					},
					"indices":3,
					"material":0
				}
			]
		},
		{
			"name":"Aster leave.007",
			"primitives":[
				{
					"attributes":{
						"POSITION":4,
						"NORMAL":5,
						"TEXCOORD_0":6
					},
					"indices":7,
					"material":1
				}
			]
		},
		{
			"name":"Aster leave.001",
			"primitives":[
				{
					"attributes":{
						"POSITION":8,
						"NORMAL":9,
						"TEXCOORD_0":10
					},
					"indices":7,
					"material":1
				}
			]
		},
		{
			"name":"Aster leave.002",
			"primitives":[
				{
					"attributes":{
						"POSITION":11,
						"NORMAL":12,
						"TEXCOORD_0":13
					},
					"indices":7,
					"material":1
				}
			]
		},
		{
			"name":"Aster leave.004",
			"primitives":[
				{
					"attributes":{
						"POSITION":14,
						"NORMAL":15,
						"TEXCOORD_0":16
					},
					"indices":7,
					"material":1
				}
			]
		}
	],
	"textures":[
		{
			"sampler":0,
			"source":0
		},
		{
			"sampler":0,
			"source":1
		}
	],
	"images":[
		{
			"mimeType":"image/png",
			"name":"aster",
			"uri":"aster.png"
		},
		{
			"mimeType":"image/png",
			"name":"Aster_leaf",
			"uri":"Aster_leaf.png"
		}
	],
	"accessors":[
		{
			"bufferView":0,
			"componentType":5126,
			"count":110,
			"max":[
				0.5,
				0.12946879863739014,
				0.5
			],
			"min":[
				-0.5,
				0.0006035715341567993,
				-0.5
			],
			"type":"VEC3"
		},
		{
			"bufferView":1,
			"componentType":5126,
			"count":110,
			"type":"VEC3"
		},
		{
			"bufferView":2,
			"componentType":5126,
			"count":110,
			"type":"VEC2"
		},
		{
			"bufferView":3,
			"componentType":5123,
			"count":540,
			"type":"SCALAR"
		},
		{
			"bufferView":4,
			"componentType":5126,
			"count":83,
			"max":[
				0.0018273591995239258,
				0.018608197569847107,
				0.013781202957034111
			],
			"min":[
				-0.038806844502687454,
				-0.02996363490819931,
				-0.029798755422234535
			],
			"type":"VEC3"
		},
		{
			"bufferView":5,
			"componentType":5126,
			"count":83,
			"type":"VEC3"
		},
		{
			"bufferView":6,
			"componentType":5126,
			"count":83,
			"type":"VEC2"
		},
		{
			"bufferView":7,
			"componentType":5123,
			"count":390,
			"type":"SCALAR"
		},
		{
			"bufferView":8,
			"componentType":5126,
			"count":83,
			"max":[
				1.208353933179751e-05,
				0.020831242203712463,
				0.013781202957034111
			],
			"min":[
				-0.04346787929534912,
				-0.03494373336434364,
				-0.029798755422234535
			],
			"type":"VEC3"
		},
		{
			"bufferView":9,
			"componentType":5126,
			"count":83,
			"type":"VEC3"
		},
		{
			"bufferView":10,
			"componentType":5126,
			"count":83,
			"type":"VEC2"
		},
		{
			"bufferView":11,
			"componentType":5126,
			"count":83,
			"max":[
				1.208353933179751e-05,
				0.020831242203712463,
				0.013781202957034111
			],
			"min":[
				-0.04346787929534912,
				-0.03494373336434364,
				-0.029798755422234535
			],
			"type":"VEC3"
		},
		{
			"bufferView":12,
			"componentType":5126,
			"count":83,
			"type":"VEC3"
		},
		{
			"bufferView":13,
			"componentType":5126,
			"count":83,
			"type":"VEC2"
		},
		{
			"bufferView":14,
			"componentType":5126,
			"count":83,
			"max":[
				1.2083437468390912e-05,
				0.020831242203712463,
				0.01623683236539364
			],
			"min":[
				-0.04346787929534912,
				-0.03494373336434364,
				-0.027343126013875008
			],
			"type":"VEC3"
		},
		{
			"bufferView":15,
			"componentType":5126,
			"count":83,
			"type":"VEC3"
		},
		{
			"bufferView":16,
			"componentType":5126,
			"count":83,
			"type":"VEC2"
		},
		{
			"bufferView":17,
			"componentType":5126,
			"count":13,
			"max":[
				0.7
			],
			"min":[
				0.3
			],
			"type":"SCALAR"
		},
		{
			"bufferView":18,
			"componentType":5126,
			"count":13,
			"type":"VEC3"
		},
		{
			"bufferView":19,
			"componentType":5126,
			"count":1,
			"max":[
				1.8333333333333333
			],
			"min":[
				1.8333333333333333
			],
			"type":"SCALAR"
		},
		{
			"bufferView":20,
			"componentType":5126,
			"count":1,
			"type":"VEC3"
		},
		{
			"bufferView":21,
			"componentType":5126,
			"count":17,
			"max":[
				1.0333333333333334
			],
			"min":[
				0.5
			],
			"type":"SCALAR"
		},
		{
			"bufferView":22,
			"componentType":5126,
			"count":17,
			"type":"VEC3"
		},
		{
			"bufferView":23,
			"componentType":5126,
			"count":17,
			"max":[
				1.4666666666666666
			],
			"min":[
				0.9333333333333333
			],
			"type":"SCALAR"
		},
		{
			"bufferView":24,
			"componentType":5126,
			"count":17,
			"type":"VEC3"
		},
		{
			"bufferView":25,
			"componentType":5126,
			"count":17,
			"type":"VEC3"
		}
	],
	"bufferViews":[
		{
			"buffer":0,
			"byteLength":1320,
			"byteOffset":0,
			"target":34962
		},
		{
			"buffer":0,
			"byteLength":1320,
			"byteOffset":1320,
			"target":34962
		},
		{
			"buffer":0,
			"byteLength":880,
			"byteOffset":2640,
			"target":34962
		},
		{
			"buffer":0,
			"byteLength":1080,
			"byteOffset":3520,
			"target":34963
		},
		{
			"buffer":0,
			"byteLength":996,
			"byteOffset":4600,
			"target":34962
		},
		{
			"buffer":0,
			"byteLength":996,
			"byteOffset":5596,
			"target":34962
		},
		{
			"buffer":0,
			"byteLength":664,
			"byteOffset":6592,
			"target":34962
		},
		{
			"buffer":0,
			"byteLength":780,
			"byteOffset":7256,
			"target":34963
		},
		{
			"buffer":0,
			"byteLength":996,
			"byteOffset":8036,
			"target":34962
		},
		{
			"buffer":0,
			"byteLength":996,
			"byteOffset":9032,
			"target":34962
		},
		{
			"buffer":0,
			"byteLength":664,
			"byteOffset":10028,
			"target":34962
		},
		{
			"buffer":0,
			"byteLength":996,
			"byteOffset":10692,
			"target":34962
		},
		{
			"buffer":0,
			"byteLength":996,
			"byteOffset":11688,
			"target":34962
		},
		{
			"buffer":0,
			"byteLength":664,
			"byteOffset":12684,
			"target":34962
		},
		{
			"buffer":0,
			"byteLength":996,
			"byteOffset":13348,
			"target":34962
		},
		{
			"buffer":0,
			"byteLength":996,
			"byteOffset":14344,
			"target":34962
		},
		{
			"buffer":0,
			"byteLength":664,
			"byteOffset":15340,
			"target":34962
		},
		{
			"buffer":0,
			"byteLength":52,
			"byteOffset":16004
		},
		{
			"buffer":0,
			"byteLength":156,
			"byteOffset":16056
		},
		{
			"buffer":0,
			"byteLength":4,
			"byteOffset":16212
		},
		{
			"buffer":0,
			"byteLength":12,
			"byteOffset":16216
		},
		{
			"buffer":0,
			"byteLength":68,
			"byteOffset":16228
		},
		{
			"buffer":0,
			"byteLength":204,
			"byteOffset":16296
		},
		{
			"buffer":0,
			"byteLength":68,
			"byteOffset":16500
		},
		{
			"buffer":0,
			"byteLength":204,
			"byteOffset":16568
		},
		{
			"buffer":0,
			"byteLength":204,
			"byteOffset":16772
		}
	],
	"samplers":[
		{
			"magFilter":9729,
			"minFilter":9987,
			"wrapS":33071,
			"wrapT":33071
		}
	],
	"buffers":[
		{
			"byteLength":16976,
			"uri":"aster.bin"
		}
	]
}
