{
	"asset":{
		"generator":"Khronos glTF Blender I/O v5.1.19",
		"version":"2.0"
	},
	"scene":0,
	"scenes":[
		{
			"name":"Scene",
			"nodes":[
				0
			]
		}
	],
	"nodes":[
		{
			"mesh":0,
			"name":"Cube.002",
			"rotation":[
				0.03914446383714676,
				0.9776937961578369,
				-0.008255353197455406,
				0.20619018375873566
			],
			"scale":[
				0.029657632112503052,
				0.0296576377004385,
				0.02965763956308365
			],
			"translation":[
				-2.7020118068321608e-05,
				0.00014789871056564152,
				-5.304086153046228e-05
			]
		}
	],
	"animations":[
		{
			"channels":[
				{
					"sampler":0,
					"target":{
						"node":0,
						"path":"scale"
					}
				}
			],
			"name":"Cube.002Action",
			"samplers":[
				{
					"input":6,
					"interpolation":"LINEAR",
					"output":7
				}
			]
		}
	],
	"materials":[
		{
			"doubleSided":true,
			"name":"Material.005",
			"pbrMetallicRoughness":{
				"baseColorFactor":[
					0.08341677486896515,
					0.007390040438622236,
					0.008552186191082,
					1
				],
				"metallicFactor":0.8340908885002136,
				"roughnessFactor":0.7977272868156433
			}
		},
		{
			"doubleSided":true,
			"name":"Material.007",
			"pbrMetallicRoughness":{
				"baseColorFactor":[
					0.0419270284473896,
					0.006484527140855789,
					0.007950708270072937,
					1
				],
				"metallicFactor":0.8045454621315002,
				"roughnessFactor":0.7772727012634277
			}
		}
	],
	"meshes":[
		{
			"name":"Cube.003",
			"primitives":[
				{
					"attributes":{
						"POSITION":0,
						"NORMAL":1
					},
					"indices":2,
					"material":0
				},
				{
					"attributes":{
						"POSITION":3,
						"NORMAL":4
					},
					"indices":5,
					"material":1
				}
			]
		}
	],
	"accessors":[
		{
			"bufferView":0,
			"componentType":5126,
			"count":19724,
			"max":[
				1.0575454235076904,
				2.1874632835388184,
				1.1221970319747925
			],
			"min":[
				-1.1073051691055298,
				-0.001376406871713698,
				-1.5104131698608398
			],
			"type":"VEC3"
		},
		{
			"bufferView":1,
			"componentType":5126,
			"count":19724,
			"type":"VEC3"
		},
		{
			"bufferView":2,
			"componentType":5123,
			"count":45114,
			"type":"SCALAR"
		},
		{
			"bufferView":3,
			"componentType":5126,
			"count":19554,
			"max":[
				0.891198456287384,
				1.6800669431686401,
				1.054172396659851
			],
			"min":[
				-1.0015345811843872,
				0.0003083354968111962,
				-0.9812527298927307
			],
			"type":"VEC3"
		},
		{
			"bufferView":4,
			"componentType":5126,
			"count":19554,
			"type":"VEC3"
		},
		{
			"bufferView":5,
			"componentType":5123,
			"count":44886,
			"type":"SCALAR"
		},
		{
			"bufferView":6,
			"componentType":5126,
			"count":41,
			"max":[
				1.7083333333333333
			],
			"min":[
				0.041666666666666664
			],
			"type":"SCALAR"
		},
		{
			"bufferView":7,
			"componentType":5126,
			"count":41,
			"type":"VEC3"
		}
	],
	"bufferViews":[
		{
			"buffer":0,
			"byteLength":236688,
			"byteOffset":0,
			"target":34962
		},
		{
			"buffer":0,
			"byteLength":236688,
			"byteOffset":236688,
			"target":34962
		},
		{
			"buffer":0,
			"byteLength":90228,
			"byteOffset":473376,
			"target":34963
		},
		{
			"buffer":0,
			"byteLength":234648,
			"byteOffset":563604,
			"target":34962
		},
		{
			"buffer":0,
			"byteLength":234648,
			"byteOffset":798252,
			"target":34962
		},
		{
			"buffer":0,
			"byteLength":89772,
			"byteOffset":1032900,
			"target":34963
		},
		{
			"buffer":0,
			"byteLength":164,
			"byteOffset":1122672
		},
		{
			"buffer":0,
			"byteLength":492,
			"byteOffset":1122836
		}
	],
	"buffers":[
		{
			"byteLength":1123328,
			"uri":"bramble.bin"
		}
	]
}
