<svg width="13" height="302" viewBox="0 0 13 302" fill="none" xmlns="http://www.w3.org/2000/svg">
<path d="M4.73556 15.4288C4.71158 15.0712 4.84128 14.5665 4.84811 14.1447C4.87811 12.3778 4.96802 11.7231 5.01901 10.1244C5.09476 7.75398 4.92428 0.718959 5.82538 0.71875C5.8254 0.71875 5.82543 0.71875 5.82545 0.71875C5.83428 0.71873 5.84322 0.719473 5.85227 0.720788C6.02393 0.745409 6.21134 1.34387 6.40549 1.43261C6.59971 1.52127 7.85356 1.45477 7.92405 2.30465C8.01694 3.53693 7.69545 6.49293 7.70969 7.15008C7.71951 7.59943 7.8335 8.15251 7.85373 8.72711C7.91897 10.5795 7.83561 11.5488 8.14524 13.2178C7.98207 13.8853 7.8189 14.5529 7.65574 15.2205C7.73139 16.0915 7.5162 17.4116 7.52805 17.9408C7.5378 18.3749 7.66683 18.6293 7.67283 19.0817C7.68028 19.5892 7.54101 20.3685 7.56199 21.2916C7.59573 22.8049 7.93233 23.0741 7.97507 23.9821C8.01931 24.9236 7.83636 26.3879 7.95481 27.5893C7.99184 27.74 8.02887 27.8906 8.06589 28.0413C8.14963 27.9334 8.23337 27.8254 8.31712 27.7175C8.3561 28.3226 8.18448 28.5827 8.18137 29.1388C8.17762 29.7931 8.34033 30.1268 8.33958 30.5671C8.33882 30.9277 8.20836 31.4167 8.21653 31.8842C8.22778 32.566 8.41615 32.4169 8.45139 32.7838C8.46508 32.9301 8.56904 35.6363 8.57053 35.789C8.57796 36.9501 8.32013 37.0512 8.29758 37.9771C8.23609 40.545 8.44443 43.1812 8.52317 45.5565C8.55839 46.6172 8.54341 47.7239 8.50217 48.7815C7.8423 47.1157 7.32875 50.8022 8.3613 49.4235C8.21441 50.6002 8.49315 51.4345 8.44602 52.55C8.41528 53.2715 8.27211 53.7709 8.27586 54.8011C8.28342 56.6291 8.69039 58.6287 7.95481 59.1544C8.08448 61.3004 7.81766 63.159 8.46702 63.9324C8.50669 64.4857 8.1199 65.9038 8.06736 66.5244C8.01787 67.1114 7.84322 71.615 7.83347 72.3518C7.82372 73.0886 7.81312 74.3783 7.87009 74.9988C7.94058 75.7784 8.61402 76.3231 7.82664 77.7111C7.89035 79.3248 7.86782 79.8998 7.77634 81.4007C7.7598 81.6724 7.6429 81.7031 7.6428 81.8618C7.6428 82.1889 7.72919 82.7452 7.73972 83.329C7.75697 84.2889 7.511 84.8368 7.88669 84.7297C7.94968 85.3627 8.01267 85.9954 8.07566 86.6283C8.00315 86.8503 7.93064 87.0723 7.85813 87.2944C7.93715 87.6327 8.01617 87.9711 8.09519 88.3095C7.55154 87.9121 7.87236 90.2935 8.1843 89.5203C8.07183 90.7471 7.95937 91.9739 7.8469 93.2007C7.22902 93.0295 7.77559 95.8943 8.11155 95.6532C8.11106 95.7935 8.11057 95.9339 8.11008 96.0743C7.94586 97.3032 8.08018 98.4319 7.96995 99.9298C7.85972 101.428 7.79956 101.287 7.51536 101.743C7.53163 102.095 7.54791 102.448 7.56418 102.8C8.34331 104.65 6.99436 104.323 7.59202 107.49C7.10234 108.502 7.35955 110.996 7.50803 112.65C7.52528 112.842 7.62033 112.846 7.64963 113.102C7.72012 113.729 7.59793 115.328 7.90452 115.273C7.81581 115.826 7.72711 116.38 7.6384 116.933C7.69415 117.386 7.74989 117.838 7.80564 118.291C7.90134 118.288 7.99705 118.286 8.09275 118.284C7.76657 119.195 7.89193 120.626 7.81394 121.333C7.79813 121.473 7.66611 121.503 7.6301 121.94C7.58736 122.451 7.62642 123.402 7.58518 124.011C7.73142 124.247 7.87766 124.484 8.0239 124.72C8.10322 125.808 7.71722 126.19 7.68723 126.829C7.68202 126.944 7.70975 129.043 7.71799 129.156C7.78331 130.081 8.11216 129.819 8.04172 132.496C8.02898 132.973 7.91519 133.359 7.91062 133.79C7.90237 134.551 8.16044 136.844 8.3989 137.025C8.10045 137.948 8.22244 140.418 8.13621 141.146C8.10969 141.365 7.91959 141.415 7.87913 142.09C7.84613 142.637 7.99835 144.046 7.97288 144.74C7.94513 145.477 7.78544 145.74 7.77415 146.07C7.76365 146.382 7.89257 146.67 7.89182 147.094C7.88732 148.421 7.67982 149.622 7.676 150.671C7.67 152.187 8.05169 153.527 8.22117 154.795C8.19642 155.11 8.1145 155.419 8.11375 155.75C8.10174 159.834 8.03142 164.441 7.94968 168.537C7.91214 170.439 7.39404 175.168 8.25852 173.906C8.40992 174.567 8.06138 179.372 8.05613 180.286C8.05093 181.2 8.20594 181.924 8.20823 182.642C8.21498 184.81 8.10328 186.336 8.23826 188.974C8.27355 189.656 8.45719 190.386 8.45505 190.789C8.45206 191.275 8.27444 191.798 8.26316 192.428C8.23767 193.929 8.29609 196.726 8.26536 198.166C8.25936 198.429 8.10341 198.521 8.05466 198.897C7.86421 200.362 7.88073 202.003 8.37864 201.713C8.09596 203.589 8.35381 205.326 8.36961 207.065C8.40185 210.743 8.28563 217.442 8.49485 220.646C8.62684 222.666 8.85015 222.614 8.65745 225.588C8.61471 226.249 8.55707 226.906 8.50608 227.707C8.3861 229.584 7.97355 231.306 8.47068 232.736C8.34175 234.821 8.43318 236.481 8.00803 238.028C8.11 238.211 8.21197 238.393 8.31394 238.575C8.31646 238.831 8.31899 239.086 8.32151 239.342C8.22426 239.422 8.12701 239.501 8.02976 239.581C8.00357 241.412 8.40328 243.735 8.40037 245.285C8.39587 247.883 8.24058 254.576 8.10935 257.04C8.03966 258.348 8.24795 258.419 7.8198 259.168C7.84958 259.46 7.87937 259.753 7.90916 260.046C8.00291 260.229 8.09666 260.412 8.19041 260.595C8.19416 262.273 8.04853 264.264 8.05002 265.863C8.05302 268.776 8.31105 273.151 8.14158 276.076C8.09884 276.81 7.90551 277.727 7.90769 278.445C7.91069 279.491 8.23153 279.745 8.23752 281.072C8.24727 283.359 7.87456 287.617 7.90305 289.779C7.91131 290.42 8.03068 290.72 8.04343 291.163C8.09817 293.022 8.08845 294.548 8.27293 296.33C7.96547 298.244 7.56862 298.079 7.16819 298.672C6.86596 299.121 6.16555 300.499 5.90085 300.695C5.71489 300.832 5.47566 300.319 5.27097 300.512C5.10749 298.219 5.28745 297.256 5.57541 295.394C5.56393 291.956 5.55246 288.518 5.54099 285.08C5.65272 284.767 5.76446 284.454 5.87619 284.141C5.87644 284.141 5.87668 284.141 5.87692 284.141C6.00587 282.821 5.71812 282.261 5.6528 281.549C5.0274 274.732 5.51688 261.314 5.58737 253.809C5.60236 252.191 5.4518 246.93 5.63327 245.821C5.68053 245.533 5.85282 245.453 5.86032 245.148C5.75786 242.417 5.65541 239.686 5.55295 236.955C5.82066 231.339 5.59956 225.533 5.55832 219.874C5.44659 204.565 5.31078 189.408 5.35202 174.349C5.36027 171.438 5.23118 167.745 5.31442 164.896C5.34893 163.707 5.62561 163.211 5.4194 161.649C5.49395 161.633 5.56849 161.616 5.64304 161.6C5.55304 160.237 5.38343 159.365 5.36618 157.837C5.35193 156.55 5.34086 153.145 5.36935 152.007C5.3836 151.417 5.52289 151.637 5.52219 151.087C5.51994 150.146 5.32737 148.134 5.32736 146.835C5.32736 145.658 5.48782 143.673 5.46457 142.769C5.38208 139.51 5.14424 135.96 5.20798 132.487C5.22601 131.528 5.40662 130.294 5.40158 129.993C5.39108 129.407 5.21564 129.232 5.19308 128.838C5.07911 126.835 5.2876 123.714 5.29587 121.751C5.32286 115.356 5.24629 108.581 5.27853 102.213C5.29878 98.1898 5.2679 91.5042 5.39987 87.7899C5.42837 86.9889 5.62058 87.2024 5.62058 86.5299C5.62053 85.7842 5.49069 85.3803 5.48019 85.0319C5.4067 82.6196 5.27545 77.2946 5.40817 75.0171C5.43366 74.5833 5.58426 74.2687 5.58371 74.0089C5.58371 73.8774 5.48093 73.5805 5.47043 73.1678C5.37744 69.5237 5.43738 66.8668 5.47263 63.2961C5.53936 56.4575 5.34816 48.5337 5.45163 41.3497C5.47413 39.7845 5.77201 38.711 5.76901 38.4909C5.763 38.008 5.56264 37.6988 5.51315 36.7206C5.35048 33.468 5.56428 29.0876 5.46384 25.994C5.41435 24.4656 5.16001 22.3653 5.10373 20.8613C5.05874 19.6599 5.15851 16.823 5.04684 16.2905C4.97938 15.9666 4.76269 15.8167 4.73556 15.4288ZM8.10862 55.8986C7.76217 55.6845 8.05009 57.9337 8.23606 57.0899C8.27793 56.8999 8.19855 55.9539 8.10862 55.8986ZM7.50705 161.215C7.60601 161.195 7.70497 161.174 7.80393 161.154C7.76275 160.858 7.72157 160.563 7.6804 160.268C7.62091 160.434 7.56142 160.6 7.50193 160.766C7.50364 160.915 7.50535 161.065 7.50705 161.215ZM10.1019 292.729C10.0888 292.706 10.2023 292.771 10.2152 292.765C10.2703 292.74 10.3543 292.778 10.4233 292.77C10.5259 292.758 10.5111 292.489 11.2384 293.021C11.2385 293.021 11.2385 293.021 11.2385 293.021C11.2456 293.027 11.2528 293.032 11.2601 293.037C11.3982 293.139 11.539 293.264 11.6942 293.381C11.8494 293.498 12.8626 294.236 12.9047 294.298C12.9581 294.382 12.647 294.263 12.6471 294.287C12.6471 294.304 12.7295 294.384 12.7358 294.41C12.7561 294.493 12.6719 294.467 12.8927 294.689C12.7493 294.609 12.606 294.529 12.4626 294.448C12.5085 294.514 12.3117 294.418 12.312 294.438C12.3123 294.454 12.412 294.536 12.409 294.55C12.4061 294.567 12.2801 294.503 12.2809 294.538C12.2817 294.594 12.5487 294.799 12.5674 294.846C12.5866 294.894 12.4134 294.821 12.488 294.92C12.5153 294.945 12.5425 294.971 12.5698 294.996C12.6393 295.043 12.7088 295.09 12.7782 295.137C12.7991 295.174 12.6561 295.079 12.6439 295.091C12.6294 295.104 12.7549 295.208 12.7466 295.218C12.7397 295.226 12.6259 295.161 12.6243 295.177C12.6215 295.2 12.7761 295.308 12.7982 295.337C12.8067 295.349 12.8433 295.475 12.8418 295.479C12.8276 295.511 12.6177 295.361 12.5833 295.37C12.4889 295.395 12.611 295.581 12.6331 295.684C12.643 295.73 12.6116 295.748 12.5598 295.749C12.0563 295.32 11.5774 295.104 12.4349 295.681C12.2958 295.623 12.5062 295.807 12.4487 295.806C12.4113 295.805 12.287 295.732 12.272 295.759C12.2462 295.807 12.5398 296.095 11.9369 295.673C12.0041 295.801 11.7563 295.688 12.2669 296.09C12.2893 296.127 11.9523 295.932 11.8991 295.916C11.8489 295.901 11.6293 295.905 11.6085 295.917C11.5878 295.929 11.5567 295.953 11.5919 296.002C11.6352 296.062 12.1692 296.473 11.5094 296.041C11.5327 296.117 11.5045 296.117 11.4044 296.099C11.3863 296.096 11.2914 296.028 11.2886 296.031C11.2829 296.039 11.3429 296.103 11.3412 296.124C11.3384 296.157 11.1303 296.025 11.4354 296.244C11.4752 296.296 11.5149 296.348 11.5547 296.401C11.4923 296.363 11.4299 296.326 11.3675 296.288C11.4254 296.343 11.4833 296.398 11.5412 296.452C11.1093 296.122 11.3267 296.368 11.5919 296.534C11.4797 296.497 11.3675 296.46 11.2553 296.423C10.7596 296.054 11.1508 296.445 11.4261 296.637C11.4233 296.64 11.4204 296.643 11.4176 296.647C11.2636 296.579 11.3523 296.685 11.2372 296.656C11.122 296.627 11.0759 296.588 10.8386 296.431C10.8456 296.449 10.8526 296.467 10.8595 296.485C11.4561 296.989 10.373 296.185 10.8001 296.613C10.3872 296.348 10.5513 296.56 10.6422 296.687C10.6528 296.702 10.7295 296.758 10.7486 296.781C10.7946 296.838 10.668 296.804 10.9165 296.983C10.8352 296.944 10.7539 296.905 10.6727 296.866C10.7098 296.91 10.7469 296.953 10.784 296.997C10.8612 297.054 10.9385 297.11 11.0158 297.167C10.7366 296.996 10.8128 297.104 10.7375 297.075C10.7223 297.069 10.6152 296.991 10.5786 296.981C10.5351 296.968 10.5501 297.013 10.5061 297.004C10.6201 297.096 10.734 297.188 10.8479 297.28C10.8929 297.352 10.5747 297.134 10.5393 297.131C10.5331 297.131 10.5188 297.197 10.5235 297.205C10.5601 297.265 10.8301 297.453 10.7265 297.476C10.7079 297.48 10.6093 297.422 10.5981 297.429C10.5781 297.442 10.7464 297.65 10.9357 297.795C10.6787 297.64 10.734 297.771 10.6517 297.738C10.6265 297.728 10.4722 297.616 10.4277 297.609C10.3915 297.602 10.4898 297.726 10.4571 297.727C10.4219 297.729 10.2884 297.641 10.2735 297.642C10.2596 297.643 10.3586 297.726 10.3506 297.736C10.3238 297.765 10.1353 297.671 10.114 297.694C10.0826 297.726 10.3673 297.984 10.482 298.114C10.4565 298.107 10.385 298.066 10.3786 298.073C10.2976 298.164 10.1604 298.232 10.0229 298.282C9.9594 298.305 9.45864 298.112 10.1784 298.592C10.2891 298.697 9.92388 298.606 9.90369 298.625C9.88354 298.644 9.99601 298.753 9.98531 298.771C9.95291 298.827 9.83611 298.797 9.89899 298.94C9.91558 298.977 10.0511 299.103 10.0423 299.111C10.0314 299.121 9.87889 299.029 9.85879 299.037C9.812 299.058 9.81032 299.159 9.76037 299.175C9.75094 299.178 9.62345 299.088 9.57754 299.068C9.39825 298.991 9.38292 299.04 9.78988 299.327C9.52895 299.205 9.70676 299.399 9.68914 299.449C9.65095 299.556 9.44017 299.648 9.5531 299.848C9.62436 299.974 9.80551 300.104 9.59804 300.062C9.55202 300.052 9.49402 300.034 9.43888 300.023C9.30927 299.997 8.94621 299.794 9.32249 300.122C9.18202 300.096 9.22683 300.189 8.85666 299.975C8.93579 300.04 9.01491 300.104 9.09403 300.169C9.0916 300.176 9.08918 300.184 9.08675 300.192C9.00686 300.136 8.92698 300.081 8.84709 300.025C8.79398 300.053 9.07605 300.345 9.04663 300.38C8.99763 300.439 8.75543 300.507 8.60649 300.489C8.5274 300.479 8.69429 300.604 8.33563 300.369C8.35456 300.393 8.37349 300.418 8.39243 300.442C8.4649 300.502 8.53737 300.562 8.60985 300.621C8.58357 300.664 8.43128 300.625 8.40456 300.664C8.35611 300.736 8.48799 300.992 8.30012 300.962C8.25282 300.955 8.08076 300.862 8.06998 300.881C8.05414 300.907 8.30867 301.103 8.29035 301.138C8.25829 301.198 7.88309 301.08 7.86835 301.149C7.86381 301.169 7.95493 301.246 7.95748 301.264C7.96922 301.341 7.93472 301.372 8.0525 301.523C7.77093 301.387 7.4535 301.149 7.11993 300.927C6.86813 300.759 6.27873 300.379 6.06167 300.227C5.90917 300.121 5.72504 299.967 5.55645 299.851C5.46454 299.7 5.62661 299.783 5.89154 299.909C5.94231 299.82 5.99308 299.731 6.04385 299.642C6.1395 299.7 6.23515 299.759 6.3308 299.817C6.331 299.818 6.3312 299.818 6.33139 299.818C6.45853 299.862 6.23604 299.679 6.19575 299.624C5.80999 299.092 6.43936 299.06 6.6273 298.923C6.66764 298.893 6.63797 298.679 6.80382 298.759C6.84698 298.78 6.98744 298.88 6.99883 298.877C6.96382 298.751 6.9288 298.626 6.89378 298.5C7.20792 298.524 7.13084 298.255 7.19635 298.096C7.37348 297.664 7.5285 297.222 7.82473 296.887C7.8822 296.822 7.8425 296.658 7.95943 296.639C8.00805 296.631 8.24002 296.783 8.10085 296.624C8.16131 296.667 8.22177 296.711 8.28222 296.754C8.23338 296.669 8.11169 296.548 8.12446 296.501C8.13543 296.462 8.18595 296.374 8.2288 296.364C8.2506 296.358 8.3592 296.446 8.36823 296.432C8.38285 296.408 8.26255 296.247 8.28523 296.216C8.30578 296.187 8.46993 296.235 8.46697 296.199C8.45729 296.073 8.32729 295.848 8.43938 295.803C8.47068 295.79 8.63801 295.867 8.63919 295.857C8.64096 295.837 8.5024 295.729 8.49108 295.707C8.43404 295.592 8.65682 295.64 8.69777 295.598C8.83122 295.461 8.88771 295.254 9.02493 295.121C9.11151 295.037 9.20332 294.86 9.37469 294.849C9.41168 294.846 9.56309 294.965 9.57483 294.949C9.58782 294.931 9.49007 294.845 9.48768 294.83C9.47048 294.729 9.45752 294.525 9.60441 294.549C9.63255 294.553 9.75961 294.635 9.7637 294.628C9.766 294.625 9.68823 294.557 9.68695 294.541C9.67552 294.4 9.77029 294.371 9.86109 294.307C10.0344 294.183 10.0184 293.881 10.2273 293.771C10.2728 293.747 10.532 293.897 10.5334 293.89C10.537 293.875 10.3807 293.749 10.3578 293.697C10.2833 293.523 10.5324 293.544 10.5053 293.411C10.492 293.346 10.3234 293.145 10.3043 293.076C10.2889 293.021 10.419 293.012 10.3381 292.934C10.2894 292.886 10.1171 292.754 10.1019 292.729ZM12.1179 295.687C11.842 295.477 12.0351 295.701 12.2 295.79C12.2371 295.81 12.1895 295.741 12.1179 295.687ZM9.79348 297.846C9.87371 297.904 9.95395 297.961 10.0342 298.019C10.0061 297.988 9.97802 297.957 9.94993 297.925C9.89902 297.894 9.84811 297.863 9.79719 297.832C9.79595 297.836 9.79472 297.841 9.79348 297.846ZM0.58139 295.006C0.555734 295.011 0.656143 294.927 0.655222 294.914C0.652509 294.855 0.717322 294.79 0.734794 294.724C0.760812 294.625 0.507867 294.551 1.26054 294.056C1.26055 294.056 1.26057 294.056 1.26059 294.056C1.26797 294.051 1.27545 294.046 1.28302 294.041C1.4268 293.947 1.59274 293.858 1.7563 293.754C1.91993 293.649 2.9662 292.958 3.03843 292.94C3.13538 292.918 2.9133 293.165 2.93552 293.173C2.95079 293.179 3.05469 293.129 3.08062 293.132C3.16422 293.14 3.10982 293.209 3.39468 293.079C3.26888 293.184 3.14308 293.29 3.01728 293.396C3.09416 293.375 2.93515 293.525 2.95337 293.531C2.96833 293.536 3.08011 293.471 3.09223 293.478C3.10643 293.486 3.00235 293.582 3.03437 293.592C3.08634 293.61 3.37172 293.431 3.42169 293.429C3.47344 293.427 3.34364 293.563 3.46145 293.526C3.49475 293.51 3.52805 293.493 3.56134 293.476C3.62959 293.428 3.69784 293.379 3.76609 293.33C3.80816 293.323 3.6689 293.424 3.67505 293.439C3.6822 293.457 3.82334 293.375 3.82963 293.386C3.83467 293.395 3.73338 293.478 3.74755 293.485C3.76766 293.495 3.92266 293.388 3.95787 293.377C3.9716 293.373 4.10096 293.381 4.10461 293.384C4.12906 293.407 3.91528 293.551 3.911 293.586C3.89999 293.681 4.11544 293.629 4.21854 293.643C4.26463 293.649 4.2695 293.683 4.25168 293.731C3.67432 294.054 3.30329 294.425 4.1441 293.824C4.03989 293.933 4.28583 293.8 4.26399 293.852C4.24965 293.886 4.13791 293.977 4.15723 294C4.19228 294.039 4.56363 293.863 3.95748 294.28C4.09951 294.26 3.90585 294.451 4.4604 294.112C4.50223 294.104 4.20144 294.35 4.1673 294.394C4.13518 294.435 4.06008 294.639 4.06351 294.662C4.06695 294.685 4.07836 294.721 4.1357 294.705C4.20683 294.685 4.77789 294.327 4.14202 294.793C4.2206 294.797 4.21081 294.823 4.15799 294.909C4.14844 294.925 4.05128 294.99 4.05369 294.994C4.05883 295.001 4.13973 294.967 4.1577 294.975C4.18719 294.989 3.99035 295.137 4.30248 294.928C4.36504 294.908 4.42759 294.889 4.49015 294.869C4.43308 294.915 4.376 294.96 4.31892 295.005C4.39024 294.97 4.46156 294.934 4.53288 294.899C4.07254 295.188 4.37793 295.069 4.62634 294.879C4.55168 294.97 4.47702 295.061 4.40235 295.152C3.88356 295.488 4.38512 295.256 4.66195 295.065C4.66375 295.069 4.66555 295.072 4.66734 295.076C4.54948 295.196 4.67941 295.149 4.61088 295.245C4.54234 295.341 4.48988 295.371 4.25965 295.538C4.27879 295.538 4.29792 295.537 4.31705 295.537C4.99691 295.152 3.86502 295.886 4.414 295.633C4.02088 295.927 4.27493 295.845 4.42494 295.803C4.44236 295.798 4.52181 295.746 4.55032 295.736C4.61904 295.712 4.54211 295.817 4.79733 295.647C4.73193 295.709 4.66654 295.771 4.60115 295.833C4.65482 295.813 4.70849 295.794 4.76216 295.774C4.84207 295.721 4.92197 295.668 5.00187 295.616C4.74374 295.817 4.87094 295.782 4.8169 295.842C4.8059 295.854 4.69611 295.927 4.67289 295.957C4.64521 295.993 4.69279 295.994 4.6679 296.031C4.79377 295.957 4.91964 295.882 5.0455 295.807C5.12886 295.79 4.81245 296.011 4.79743 296.043C4.79489 296.048 4.85103 296.083 4.85969 296.081C4.9288 296.067 5.19935 295.88 5.18259 295.983C5.17944 296.001 5.09045 296.073 5.0934 296.086C5.09847 296.109 5.35008 296.022 5.55209 295.895C5.31731 296.081 5.45803 296.073 5.39743 296.138C5.37873 296.157 5.22072 296.263 5.19753 296.301C5.17857 296.333 5.32786 296.283 5.31749 296.313C5.30589 296.346 5.17663 296.44 5.17239 296.454C5.16852 296.467 5.28072 296.403 5.28678 296.414C5.30387 296.448 5.14942 296.591 5.16271 296.618C5.18152 296.658 5.52139 296.48 5.68289 296.417C5.66716 296.438 5.60359 296.49 5.60816 296.499C5.66231 296.603 5.67597 296.751 5.67207 296.894C5.67059 296.96 5.31214 297.358 6.0144 296.852C6.15124 296.785 5.93562 297.091 5.9456 297.116C5.95562 297.141 6.09648 297.073 6.10967 297.089C6.14937 297.137 6.08006 297.234 6.23426 297.223C6.27444 297.22 6.43931 297.137 6.44387 297.147C6.449 297.161 6.30886 297.271 6.30933 297.292C6.31163 297.342 6.40438 297.377 6.40134 297.428C6.40046 297.437 6.27165 297.525 6.23684 297.561C6.10077 297.701 6.14036 297.731 6.55169 297.45C6.34507 297.65 6.58773 297.55 6.62826 297.583C6.71298 297.653 6.72118 297.877 6.94628 297.838C7.08827 297.814 7.27399 297.69 7.15977 297.867C7.13445 297.906 7.09663 297.954 7.06662 298.001C6.9959 298.111 6.67837 298.379 7.11609 298.14C7.04116 298.261 7.14362 298.25 6.81281 298.521C6.90085 298.469 6.98888 298.417 7.07692 298.366C7.08305 298.37 7.08917 298.375 7.09529 298.38C7.01532 298.435 6.93534 298.491 6.85536 298.546C6.86226 298.604 7.23263 298.44 7.25455 298.478C7.29163 298.543 7.26709 298.788 7.1962 298.919C7.15855 298.989 7.33363 298.876 6.98777 299.129C7.01725 299.12 7.04673 299.11 7.0762 299.101C7.15739 299.054 7.23857 299.007 7.31976 298.959C7.34926 298.997 7.25891 299.125 7.28528 299.162C7.33357 299.23 7.61783 299.193 7.52225 299.356C7.49809 299.397 7.35101 299.525 7.36412 299.541C7.38306 299.564 7.65504 299.394 7.6809 299.422C7.72497 299.472 7.48057 299.778 7.53834 299.814C7.55532 299.825 7.65974 299.766 7.67735 299.77C7.75229 299.784 7.76815 299.826 7.95024 299.767C7.72351 299.982 7.38943 300.196 7.06427 300.43C6.81889 300.607 6.25551 301.025 6.03748 301.176C5.88431 301.281 5.67643 301.4 5.50848 301.517C5.33591 301.553 5.47108 301.431 5.68235 301.228C5.61874 301.152 5.55512 301.076 5.49151 301.001C5.57993 300.932 5.66834 300.863 5.75676 300.794C5.75696 300.794 5.75716 300.794 5.75737 300.793C5.84433 300.691 5.59518 300.836 5.52943 300.855C4.89991 301.036 5.09792 300.447 5.03886 300.229C5.02596 300.182 4.81753 300.139 4.95167 300.013C4.98663 299.98 5.12929 299.883 5.13074 299.872C5.00225 299.863 4.87375 299.854 4.74526 299.845C4.88062 299.564 4.60471 299.547 4.48134 299.434C4.14743 299.13 3.79581 298.843 3.59361 298.461C3.55477 298.387 3.38891 298.37 3.41367 298.256C3.42381 298.209 3.64713 298.045 3.45033 298.121C3.51234 298.079 3.57435 298.038 3.63636 297.997C3.53977 298.014 3.3844 298.086 3.34597 298.059C3.31385 298.036 3.25109 297.961 3.25702 297.918C3.25965 297.896 3.37945 297.825 3.37022 297.812C3.35354 297.791 3.16108 297.849 3.14066 297.818C3.12216 297.79 3.22501 297.654 3.19137 297.645C3.07126 297.613 2.81681 297.659 2.81548 297.541C2.81546 297.508 2.94693 297.379 2.938 297.375C2.92001 297.367 2.77072 297.459 2.74569 297.462C2.61902 297.477 2.74412 297.288 2.72019 297.236C2.64223 297.069 2.47181 296.949 2.39867 296.779C2.35236 296.672 2.22151 296.53 2.27338 296.368C2.28459 296.334 2.44849 296.233 2.43793 296.217C2.42617 296.199 2.31137 296.261 2.29713 296.258C2.19783 296.241 2.00452 296.186 2.07959 296.059C2.09406 296.034 2.21491 295.944 2.21037 295.938C2.20831 295.935 2.11779 295.985 2.10253 295.98C1.9676 295.945 1.97591 295.848 1.94924 295.744C1.89752 295.544 1.6133 295.46 1.58683 295.231C1.58103 295.181 1.81298 294.992 1.80701 294.988C1.79441 294.98 1.62219 295.083 1.56548 295.087C1.37849 295.099 1.48824 294.877 1.35573 294.858C1.29037 294.849 1.04492 294.938 0.974279 294.933C0.917823 294.929 0.956577 294.807 0.854937 294.856C0.793495 294.885 0.610143 295 0.58139 295.006ZM4.03479 294.118C3.74204 294.303 4.01788 294.198 4.15996 294.076C4.19195 294.048 4.11077 294.07 4.03479 294.118ZM5.18729 296.963C5.26962 296.908 5.35196 296.853 5.43429 296.798C5.39526 296.814 5.35622 296.829 5.31719 296.845C5.27011 296.881 5.22302 296.918 5.17594 296.955C5.17972 296.957 5.18351 296.96 5.18729 296.963ZM12.974 8.09591C13.0007 8.09497 12.8945 8.1712 12.8951 8.18675C12.8964 8.25252 12.8276 8.31426 12.8078 8.38509C12.7784 8.49017 13.039 8.6146 12.2456 9.04188C12.2456 9.04189 12.2456 9.0419 12.2456 9.04191C12.2378 9.04611 12.2299 9.05032 12.2219 9.05457C12.0704 9.13525 11.896 9.20665 11.7237 9.29613C11.5513 9.38563 10.4484 9.98212 10.373 9.99074C10.2718 9.99884 10.5084 9.76014 10.4856 9.74772C10.4699 9.73927 10.3608 9.77718 10.334 9.77001C10.2474 9.74689 10.3056 9.67909 10.0068 9.77721C10.1399 9.68036 10.2731 9.58351 10.4063 9.48666C10.326 9.49712 10.4947 9.35656 10.4759 9.34675C10.4605 9.3387 10.3429 9.39246 10.3305 9.3821C10.316 9.37083 10.4264 9.28205 10.3934 9.26507C10.3399 9.23691 10.0393 9.38867 9.98742 9.38244C9.93368 9.37594 10.0717 9.24647 9.94858 9.26758C9.91361 9.28074 9.87864 9.2939 9.84367 9.30707C9.77164 9.34992 9.69961 9.39278 9.62758 9.43564C9.58375 9.43647 9.73076 9.3475 9.72476 9.3298C9.71778 9.30893 9.56928 9.37634 9.56303 9.36314C9.55803 9.35226 9.66521 9.27613 9.65066 9.26637C9.63004 9.25181 9.46654 9.34548 9.42974 9.35149C9.41539 9.35371 9.28134 9.32404 9.27763 9.32029C9.25284 9.28994 9.47825 9.16473 9.48355 9.12702C9.49734 9.02294 9.27249 9.04481 9.16583 9.01284C9.11815 8.99859 9.11395 8.9592 9.13364 8.90879C9.74079 8.6445 10.135 8.29342 9.24758 8.82326C9.35842 8.71927 9.0999 8.8271 9.12386 8.7722C9.13959 8.73658 9.2578 8.65412 9.23831 8.62584C9.20292 8.57609 8.81319 8.71072 9.45256 8.34658C9.30467 8.34546 9.51038 8.16471 8.92651 8.45005C8.88289 8.45271 9.20114 8.22793 9.23765 8.18491C9.272 8.14432 9.35499 7.9301 9.352 7.90398C9.349 7.87786 9.33807 7.8352 9.27816 7.84411C9.20385 7.85479 8.60238 8.15822 9.2738 7.74437C9.19234 7.72749 9.20315 7.70003 9.2601 7.61286C9.27039 7.59709 9.37283 7.54077 9.37043 7.53608C9.36529 7.52654 9.28049 7.55127 9.26204 7.53924C9.23177 7.51941 9.43972 7.38679 9.11063 7.56806C9.04523 7.57946 8.97983 7.59086 8.91442 7.60226C8.97477 7.5614 9.03513 7.52054 9.09548 7.47968C9.02059 7.50728 8.9457 7.53487 8.87081 7.56247C9.3557 7.31628 9.03582 7.39892 8.77333 7.5694C8.85307 7.48027 8.93281 7.39115 9.01255 7.30202C9.55924 7.01404 9.033 7.18962 8.74101 7.35596C8.73923 7.35163 8.73745 7.3473 8.73568 7.34297C8.86095 7.22924 8.72496 7.26001 8.79847 7.16403C8.87198 7.06806 8.92716 7.04363 9.17022 6.89558C9.15035 6.89301 9.13048 6.89045 9.11062 6.88788C8.39558 7.20336 9.58838 6.57325 9.01241 6.76424C9.42764 6.50252 9.16198 6.55171 9.00527 6.57385C8.98706 6.57642 8.90333 6.62139 8.87349 6.62781C8.80159 6.64295 8.88404 6.53836 8.61497 6.68533C8.68437 6.62711 8.75377 6.5689 8.82317 6.51069C8.76698 6.52392 8.71079 6.53715 8.6546 6.55039C8.57038 6.59583 8.48616 6.64128 8.40193 6.68673C8.67479 6.50548 8.54193 6.52315 8.5995 6.46557C8.61121 6.45397 8.72696 6.39049 8.7518 6.36067C8.78141 6.3255 8.73207 6.31627 8.75882 6.27896C8.62635 6.3414 8.49388 6.40385 8.36141 6.46629C8.27448 6.47216 8.60831 6.27797 8.62468 6.24511C8.62746 6.23928 8.57007 6.1912 8.56104 6.19181C8.48898 6.19578 8.20358 6.35936 8.22352 6.24785C8.22725 6.22789 8.32137 6.16269 8.31862 6.14795C8.31393 6.12183 8.05067 6.17727 7.83789 6.28508C8.08615 6.11662 7.93992 6.1024 8.00441 6.04028C8.0243 6.0213 8.1909 5.92971 8.21592 5.89083C8.23637 5.85922 8.0802 5.89027 8.09173 5.85795C8.10458 5.8233 8.24105 5.7399 8.2458 5.72491C8.25014 5.71084 8.13212 5.76358 8.1261 5.75083C8.10921 5.70999 8.27303 5.57654 8.25991 5.54414C8.24137 5.49705 7.88427 5.63896 7.71512 5.6823C7.73196 5.66138 7.79923 5.61351 7.7947 5.60352C7.74109 5.47866 7.73061 5.31089 7.7382 5.15261C7.74136 5.07932 8.12321 4.69567 7.38192 5.14242C7.23825 5.19492 7.4696 4.88945 7.45986 4.86029C7.45008 4.83116 7.30222 4.88353 7.28892 4.86366C7.24891 4.80362 7.32327 4.70612 7.16297 4.69314C7.1212 4.68999 6.94804 4.75577 6.94358 4.74298C6.93858 4.72738 7.08674 4.6279 7.08678 4.60418C7.08564 4.54829 6.99024 4.49438 6.99467 4.43779C6.99582 4.42728 7.13168 4.35064 7.16868 4.31655C7.31335 4.18352 7.27302 4.14346 6.8392 4.38803C7.05859 4.19923 6.80429 4.27083 6.76305 4.22758C6.67687 4.13556 6.67391 3.88498 6.43937 3.89071C6.29142 3.89435 6.09562 4.00175 6.21854 3.82359C6.24579 3.78406 6.28621 3.73755 6.31852 3.69001C6.39466 3.57835 6.73082 3.33249 6.27065 3.52647C6.35141 3.40451 6.24481 3.39942 6.59482 3.15269C6.50218 3.19572 6.40954 3.23875 6.3169 3.28178C6.31066 3.27552 6.30442 3.26926 6.29818 3.263C6.38255 3.21456 6.46692 3.16612 6.55129 3.11768C6.54557 3.05184 6.15715 3.1736 6.13537 3.12699C6.09849 3.04904 6.13004 2.78012 6.20686 2.646C6.24766 2.57479 6.06317 2.6715 6.42836 2.44663C6.39753 2.45222 6.36671 2.4578 6.33589 2.46339C6.25047 2.5025 6.16505 2.54161 6.07964 2.58072C6.04996 2.53353 6.14689 2.4064 6.12045 2.36046C6.07203 2.27688 5.77611 2.27157 5.87934 2.10585C5.90544 2.06419 6.06125 1.94576 6.04804 1.92583C6.02897 1.89675 5.7425 2.04146 5.71637 2.0056C5.67185 1.9435 5.93308 1.64251 5.87403 1.59296C5.85668 1.57814 5.74687 1.62601 5.72868 1.61912C5.65127 1.59084 5.63585 1.54171 5.44543 1.57718C5.68605 1.37555 6.03804 1.1922 6.38128 0.985018C6.64031 0.828594 7.23531 0.456264 7.46529 0.325043C7.62686 0.232854 7.84554 0.134392 8.02273 0.0317104C8.20269 0.0210953 8.05938 0.134533 7.83511 0.325396C7.89925 0.420274 7.96338 0.515151 8.02751 0.610029C7.93405 0.672138 7.84059 0.734247 7.74713 0.796356C7.74691 0.796472 7.7467 0.796588 7.74648 0.796703C7.6537 0.896374 7.91584 0.776257 7.98454 0.766062C8.6423 0.668424 8.42219 1.29203 8.47807 1.54444C8.49029 1.59874 8.70552 1.68085 8.56319 1.79928C8.52609 1.83007 8.37565 1.9141 8.37386 1.92657C8.50698 1.95767 8.6401 1.98877 8.77322 2.01987C8.62577 2.31067 8.91166 2.37523 9.0369 2.52079C9.37585 2.91451 9.73361 3.29236 9.93394 3.7513C9.97241 3.84013 10.1441 3.88669 10.1156 4.00929C10.1039 4.06035 9.86807 4.206 10.0742 4.1538C10.0088 4.18962 9.94343 4.22545 9.87805 4.26128C9.97871 4.25838 10.1417 4.20337 10.1809 4.23979C10.2137 4.27059 10.277 4.36469 10.2698 4.41139C10.2665 4.43535 10.1404 4.49499 10.1497 4.5107C10.1664 4.53711 10.3676 4.5045 10.388 4.5424C10.4065 4.57675 10.2964 4.71072 10.3311 4.7261C10.4549 4.78208 10.7201 4.77287 10.7186 4.90442C10.7178 4.94097 10.5782 5.06261 10.5873 5.06898C10.6058 5.08113 10.763 5.00304 10.789 5.00385C10.9209 5.00822 10.7863 5.19815 10.8099 5.25934C10.8866 5.45875 11.0605 5.62012 11.1322 5.82121C11.1776 5.9482 11.3098 6.12863 11.252 6.29958C11.2395 6.33646 11.0669 6.42137 11.0775 6.44099C11.0893 6.46273 11.2099 6.41295 11.2246 6.41814C11.3272 6.45367 11.5265 6.54681 11.4454 6.67619C11.4298 6.70094 11.3022 6.78153 11.3067 6.78885C11.3088 6.79268 11.4039 6.75261 11.4197 6.75968C11.5588 6.82191 11.5478 6.92785 11.5729 7.04875C11.6216 7.27993 11.9144 7.42046 11.9362 7.67914C11.941 7.73548 11.6956 7.90805 11.7017 7.91305C11.7146 7.92429 11.8959 7.8383 11.9548 7.84338C12.1491 7.86114 12.0297 8.09034 12.1668 8.13297C12.2344 8.1541 12.4913 8.09478 12.5645 8.11198C12.623 8.1257 12.5797 8.25579 12.6864 8.21837C12.7509 8.19583 12.944 8.09746 12.974 8.09591ZM9.3683 8.51451C9.67669 8.35648 9.38785 8.42738 9.23738 8.54018C9.2035 8.56558 9.28825 8.55554 9.3683 8.51451ZM8.24296 5.15636C8.15616 5.20389 8.06935 5.25141 7.98255 5.29894C8.02345 5.28803 8.06434 5.27712 8.10524 5.26621C8.155 5.23316 8.20477 5.20011 8.25454 5.16706C8.25068 5.16349 8.24682 5.15993 8.24296 5.15636ZM2.92132 10.1409C2.93449 10.1645 2.81646 10.1079 2.80265 10.1165C2.74366 10.1515 2.65598 10.1212 2.58268 10.1398C2.47389 10.1673 2.48117 10.4663 1.72849 9.97088C1.72847 9.97087 1.72845 9.97086 1.72843 9.97085C1.72105 9.96599 1.7136 9.96105 1.70607 9.95604C1.56316 9.86094 1.41811 9.74043 1.25765 9.63109C1.09712 9.52172 0.0485333 8.83426 0.00597805 8.77071C-0.0479451 8.68368 0.277365 8.7742 0.278088 8.74719C0.278516 8.72868 0.193932 8.64987 0.18806 8.62198C0.169153 8.53206 0.257394 8.54961 0.0308219 8.33067C0.179934 8.40091 0.329047 8.47114 0.478158 8.54138C0.431695 8.47437 0.636795 8.55417 0.637058 8.53221C0.637252 8.51419 0.534365 8.43582 0.538044 8.41932C0.541564 8.40041 0.672863 8.45425 0.67307 8.41578C0.673948 8.35308 0.397966 8.16015 0.379702 8.11016C0.360838 8.05836 0.54177 8.11622 0.465908 8.01605C0.437874 7.99129 0.40984 7.96654 0.381804 7.94178C0.309784 7.89889 0.237764 7.856 0.165744 7.8131C0.144804 7.77401 0.293153 7.86078 0.306426 7.84626C0.322124 7.82924 0.192631 7.73004 0.201713 7.71761C0.209272 7.7075 0.327636 7.76497 0.329791 7.74683C0.333489 7.72075 0.173283 7.62153 0.15089 7.59145C0.142266 7.57965 0.107412 7.44354 0.109094 7.43826C0.12519 7.4003 0.342495 7.53911 0.379108 7.52449C0.479791 7.48337 0.356401 7.2919 0.336254 7.1793C0.327203 7.12899 0.360975 7.10493 0.415731 7.09675C0.934917 7.50817 1.43468 7.68297 0.545727 7.15547C0.691025 7.2019 0.474223 7.0243 0.535014 7.01767C0.574553 7.01352 0.703729 7.07767 0.720385 7.04555C0.749176 6.98805 0.447649 6.70595 1.07216 7.09505C1.00506 6.96114 1.26363 7.05361 0.736089 6.67401C0.713583 6.63606 1.06389 6.80734 1.1197 6.81813C1.17231 6.82821 1.40469 6.79283 1.42698 6.77669C1.44928 6.76056 1.4829 6.72875 1.44723 6.67932C1.40333 6.61782 0.851286 6.23166 1.53563 6.62408C1.5134 6.54196 1.54326 6.53758 1.6485 6.54408C1.66753 6.54525 1.76577 6.60862 1.7689 6.60405C1.77518 6.59451 1.71371 6.53078 1.71612 6.50795C1.72015 6.47046 1.93613 6.58971 1.62026 6.38627C1.57981 6.33317 1.53935 6.28007 1.49889 6.22698C1.56372 6.26037 1.62855 6.29376 1.69338 6.32715C1.63387 6.27383 1.57437 6.22051 1.51486 6.16719C1.96133 6.47769 1.7391 6.23182 1.46369 6.08286C1.58119 6.1089 1.69869 6.13495 1.8162 6.16099C2.32901 6.50571 1.92749 6.1216 1.64225 5.94392C1.64535 5.94009 1.64845 5.93626 1.65156 5.93244C1.81234 5.98687 1.72182 5.88009 1.84266 5.89699C1.9635 5.91389 2.01105 5.95108 2.25719 6.09405C2.25036 6.07481 2.24354 6.05558 2.23671 6.03635C1.62145 5.554 2.74192 6.30522 2.30354 5.88421C2.73199 6.12392 2.56505 5.90971 2.4728 5.77982C2.46209 5.76472 2.38276 5.71237 2.3632 5.68878C2.31637 5.63174 2.44913 5.65226 2.192 5.48529C2.27672 5.51791 2.36145 5.55053 2.44617 5.58316C2.4083 5.53931 2.37043 5.49545 2.33255 5.4516C2.25257 5.39905 2.17259 5.3465 2.0926 5.29394C2.38255 5.4467 2.30534 5.33601 2.38404 5.35828C2.39994 5.36288 2.5108 5.43458 2.54927 5.44163C2.59478 5.45024 2.58042 5.401 2.62655 5.40593C2.50894 5.31862 2.39133 5.23131 2.27372 5.144C2.22837 5.06865 2.55813 5.26973 2.59545 5.26757C2.60201 5.26709 2.61915 5.19061 2.61444 5.18278C2.57766 5.11985 2.29794 4.9467 2.40819 4.90731C2.42799 4.90041 2.53044 4.95172 2.54254 4.94166C2.56405 4.92399 2.39254 4.71517 2.19682 4.5788C2.46385 4.71596 2.40939 4.57681 2.4954 4.60299C2.52176 4.61116 2.6815 4.71424 2.72826 4.71679C2.76633 4.71897 2.66626 4.59416 2.70086 4.58791C2.73818 4.58167 2.87663 4.6618 2.8924 4.65838C2.90716 4.65505 2.80499 4.57578 2.81378 4.56379C2.84302 4.52756 3.03941 4.6066 3.06274 4.57811C3.09687 4.53716 2.80378 4.28822 2.68659 4.15802C2.7133 4.16244 2.78768 4.19846 2.79464 4.18923C2.88311 4.07667 3.03034 3.98091 3.17729 3.90633C3.24517 3.87148 3.76876 4.01837 3.02243 3.57988C2.90866 3.47735 3.29208 3.52879 3.31402 3.505C3.33591 3.4812 3.22035 3.37484 3.23223 3.35262C3.26822 3.28567 3.39084 3.30255 3.32876 3.15136C3.31238 3.11207 3.173 2.9898 3.18254 2.9792C3.19438 2.96667 3.35278 3.04906 3.3743 3.03689C3.42442 3.00711 3.42935 2.89338 3.48267 2.86826C3.49273 2.86389 3.62477 2.94694 3.67271 2.96277C3.85991 3.02476 3.87764 2.96778 3.45617 2.70249C3.72833 2.80315 3.5463 2.61072 3.56651 2.55129C3.61021 2.42625 3.83596 2.29469 3.72273 2.08617C3.65129 1.95466 3.46377 1.83338 3.68185 1.85255C3.73023 1.85679 3.791 1.8693 3.84897 1.87397C3.98524 1.88517 4.3629 2.06176 3.97514 1.74668C4.12287 1.75675 4.07839 1.65803 4.46322 1.84666C4.38155 1.78527 4.29987 1.72388 4.2182 1.6625C4.22101 1.65365 4.22381 1.64481 4.22661 1.63596C4.30937 1.68711 4.39213 1.73825 4.47489 1.7894C4.53193 1.75037 4.24268 1.46282 4.27488 1.41921C4.32855 1.34586 4.5868 1.23596 4.74374 1.23622C4.82707 1.23637 4.65445 1.11979 5.02646 1.33335C5.0072 1.30843 4.98794 1.28352 4.96868 1.25861C4.89389 1.20172 4.8191 1.14483 4.74431 1.08794C4.77341 1.03691 4.93327 1.05889 4.96274 1.01142C5.01619 0.924768 4.88469 0.655253 5.08244 0.663068C5.13222 0.665161 5.31132 0.744706 5.3233 0.722545C5.34087 0.69039 5.07776 0.506571 5.09824 0.464561C5.13401 0.392479 5.52713 0.473153 5.54484 0.394422C5.55027 0.371152 5.45631 0.296776 5.45418 0.276833C5.44415 0.192501 5.48158 0.153321 5.36173 -0.000109971C5.65529 0.113098 5.98359 0.336119 6.32946 0.538985C6.59054 0.692045 7.20205 1.03694 7.4269 1.17676C7.58488 1.275 7.77484 1.4215 7.94952 1.52843C8.04202 1.68521 7.87321 1.61437 7.59693 1.51037C7.54047 1.617 7.48402 1.72362 7.42757 1.83025C7.32824 1.77794 7.2289 1.72564 7.12956 1.67333C7.12936 1.67319 7.12915 1.67306 7.12895 1.67292C6.99588 1.64055 7.22549 1.81509 7.26637 1.87178C7.65782 2.41456 6.99125 2.53694 6.78823 2.71716C6.74464 2.75611 6.76936 2.9924 6.59647 2.925C6.55147 2.9074 6.40603 2.815 6.39389 2.81979C6.42702 2.95581 6.46015 3.09183 6.49328 3.22785C6.16181 3.24451 6.23497 3.53547 6.16074 3.72326C5.96003 4.2314 5.78235 4.74831 5.45867 5.16503C5.39589 5.24541 5.43278 5.42414 5.30853 5.46151C5.25686 5.47723 5.01624 5.33956 5.15848 5.49852C5.0959 5.45801 5.03332 5.41751 4.97074 5.377C5.01972 5.46625 5.14467 5.58493 5.12972 5.63901C5.1169 5.6844 5.06075 5.78984 5.0151 5.80736C4.99187 5.81674 4.87975 5.73374 4.86977 5.75018C4.85357 5.77889 4.97578 5.94347 4.95083 5.98138C4.92822 6.01572 4.75609 5.98539 4.75813 6.02458C4.76444 6.16502 4.89493 6.39936 4.77499 6.46565C4.7415 6.48372 4.56694 6.42042 4.56538 6.43196C4.56288 6.45485 4.70606 6.55642 4.71733 6.58032C4.77408 6.70141 4.53998 6.67785 4.49538 6.73056C4.35 6.90233 4.28383 7.14211 4.13459 7.31019C4.04042 7.41644 3.9378 7.62849 3.75623 7.6643C3.71704 7.672 3.5606 7.56009 3.54768 7.57972C3.53339 7.6015 3.63409 7.68467 3.63617 7.70061C3.65122 7.8114 3.65858 8.03894 3.50398 8.03242C3.47436 8.03106 3.34252 7.95744 3.33799 7.96532C3.33547 7.96915 3.41561 8.03433 3.41646 8.05215C3.42414 8.2096 3.32304 8.25417 3.22502 8.33897C3.03794 8.50182 3.04546 8.83814 2.82105 8.99086C2.7722 9.02416 2.50276 8.8917 2.50104 8.89977C2.49678 8.91716 2.6582 9.03635 2.68075 9.0921C2.75416 9.27645 2.49144 9.2867 2.51593 9.43219C2.52791 9.504 2.70001 9.70513 2.71814 9.77995C2.73264 9.83974 2.59482 9.86766 2.67786 9.94459C2.72799 9.99114 2.90611 10.1147 2.92132 10.1409ZM0.881154 7.10548C1.16642 7.30221 0.969129 7.07828 0.797585 7.00065C0.758959 6.98317 0.807098 7.05442 0.881154 7.10548ZM3.40638 4.36333C3.32332 4.30952 3.24027 4.25571 3.15722 4.2019C3.18594 4.23316 3.21467 4.26442 3.24339 4.29567C3.29627 4.32354 3.34914 4.35141 3.40202 4.37927C3.40347 4.37396 3.40493 4.36865 3.40638 4.36333Z" fill="#533D2D"/>
</svg>
