{
	"asset":{
		"generator":"Khronos glTF Blender I/O v5.1.18",
		"version":"2.0"
	},
	"extensionsUsed":[
		"KHR_materials_emissive_strength"
	],
	"scene":0,
	"scenes":[
		{
			"name":"Scene",
			"nodes":[
				0,
				1,
				2,
				3,
				4,
				5,
				6,
				7
			]
		}
	],
	"nodes":[
		{
			"mesh":0,
			"name":"Chapeau 13",
			"scale":[
				0.6869338154792786,
				0.47488364577293396,
				0.5555378794670105
			],
			"translation":[
				0.08898867666721344,
				0.6827081441879272,
				0.028095245361328125
			]
		},
		{
			"mesh":1,
			"name":"Chapeau 12",
			"rotation":[
				0.1473972350358963,
				0.020856812596321106,
				-0.003108892822638154,
				0.9888525605201721
			],
			"scale":[
				0.1017095148563385,
				0.0717775970697403,
				0.081633560359478
			],
			"translation":[
				0.10216937959194183,
				0.41369500756263733,
				0.20624351501464844
			]
		},
		{
			"mesh":2,
			"name":"Chapeau 11",
			"rotation":[
				0,
				0,
				0.21112580597400665,
				0.9774588942527771
			],
			"scale":[
				0.14002159237861633,
				0.10233304649591446,
				0.11507082730531693
			],
			"translation":[
				-0.16025635600090027,
				0.5504805445671082,
				0.027219772338867188
			]
		},
		{
			"mesh":3,
			"name":"Chapeau 10",
			"rotation":[
				0,
				0,
				-0.21455731987953186,
				0.9767113924026489
			],
			"scale":[
				0.11575927585363388,
				0.08474379032850266,
				0.09518498927354813
			],
			"translation":[
				0.2857687473297119,
				0.4913695454597473,
				-0.043079376220703125
			]
		},
		{
			"mesh":4,
			"name":"Base 4.002",
			"rotation":[
				-0.09615802764892578,
				-0.8200634717941284,
				-0.5026950836181641,
				0.25602224469184875
			],
			"scale":[
				0.03333698585629463,
				0.03263416886329651,
				0.030078137293457985
			],
			"translation":[
				0.09066690504550934,
				0.2758539915084839,
				0.1605377197265625
			]
		},
		{
			"mesh":5,
			"name":"Base 3.002",
			"rotation":[
				-0.4643178880214691,
				-0.3243410587310791,
				-0.2566716969013214,
				0.7831548452377319
			],
			"scale":[
				0.04686134681105614,
				0.04605386033654213,
				0.041979674249887466
			],
			"translation":[
				0.2264716625213623,
				0.30701836943626404,
				-0.009000778198242188
			]
		},
		{
			"mesh":6,
			"name":"Base 2.004",
			"rotation":[
				-0.44500496983528137,
				0.7220472693443298,
				0.4490272104740143,
				0.28105685114860535
			],
			"scale":[
				0.055666759610176086,
				0.056265607476234436,
				0.05044643208384514
			],
			"translation":[
				0.006920851767063141,
				0.32807648181915283,
				0.03289985656738281
			]
		},
		{
			"mesh":7,
			"name":"Base 1.006",
			"scale":[
				0.1757170855998993,
				0.1502060890197754,
				0.1757170855998993
			],
			"translation":[
				0.08898867666721344,
				-0.030769214034080505,
				0.028095245361328125
			]
		}
	],
	"materials":[
		{
			"doubleSided":true,
			"emissiveFactor":[
				1,
				1,
				1
			],
			"extensions":{
				"KHR_materials_emissive_strength":{
					"emissiveStrength":2.299999952316284
				}
			},
			"name":"chapeau 3",
			"pbrMetallicRoughness":{
				"metallicFactor":0,
				"roughnessFactor":0.5
			}
		},
		{
			"doubleSided":true,
			"emissiveFactor":[
				1,
				1,
				1
			],
			"extensions":{
				"KHR_materials_emissive_strength":{
					"emissiveStrength":1.399999976158142
				}
			},
			"name":"base 3",
			"pbrMetallicRoughness":{
				"metallicFactor":0,
				"roughnessFactor":0.5
			}
		}
	],
	"meshes":[
		{
			"name":"Sphere.020",
			"primitives":[
				{
					"attributes":{
						"POSITION":0,
						"NORMAL":1,
						"TEXCOORD_0":2
					},
					"indices":3,
					"material":0
				}
			]
		},
		{
			"name":"Sphere.019",
			"primitives":[
				{
					"attributes":{
						"POSITION":4,
						"NORMAL":5,
						"TEXCOORD_0":6
					},
					"indices":3,
					"material":0
				}
			]
		},
		{
			"name":"Sphere.018",
			"primitives":[
				{
					"attributes":{
						"POSITION":7,
						"NORMAL":8,
						"TEXCOORD_0":9
					},
					"indices":3,
					"material":0
				}
			]
		},
		{
			"name":"Sphere.017",
			"primitives":[
				{
					"attributes":{
						"POSITION":10,
						"NORMAL":11,
						"TEXCOORD_0":12
					},
					"indices":3,
					"material":0
				}
			]
		},
		{
			"name":"Circle.272",
			"primitives":[
				{
					"attributes":{
						"POSITION":13,
						"NORMAL":14,
						"TEXCOORD_0":15
					},
					"indices":16,
					"material":1
				}
			]
		},
		{
			"name":"Circle.273",
			"primitives":[
				{
					"attributes":{
						"POSITION":17,
						"NORMAL":18,
						"TEXCOORD_0":19
					},
					"indices":16,
					"material":1
				}
			]
		},
		{
			"name":"Circle.274",
			"primitives":[
				{
					"attributes":{
						"POSITION":20,
						"NORMAL":21,
						"TEXCOORD_0":22
					},
					"indices":16,
					"material":1
				}
			]
		},
		{
			"name":"Circle.275",
			"primitives":[
				{
					"attributes":{
						"POSITION":23,
						"NORMAL":24,
						"TEXCOORD_0":25
					},
					"indices":26,
					"material":1
				}
			]
		}
	],
	"accessors":[
		{
			"bufferView":0,
			"componentType":5126,
			"count":592,
			"max":[
				0.9833604097366333,
				1.1958346366882324,
				1.0171643495559692
			],
			"min":[
				-1.0246906280517578,
				-0.05013379827141762,
				-0.9895562529563904
			],
			"type":"VEC3"
		},
		{
			"bufferView":1,
			"componentType":5126,
			"count":592,
			"type":"VEC3"
		},
		{
			"bufferView":2,
			"componentType":5126,
			"count":592,
			"type":"VEC2"
		},
		{
			"bufferView":3,
			"componentType":5123,
			"count":3072,
			"type":"SCALAR"
		},
		{
			"bufferView":4,
			"componentType":5126,
			"count":592,
			"max":[
				0.9833604097366333,
				1.346718430519104,
				1.0171643495559692
			],
			"min":[
				-1.0246906280517578,
				-0.05013379827141762,
				-0.9895562529563904
			],
			"type":"VEC3"
		},
		{
			"bufferView":5,
			"componentType":5126,
			"count":592,
			"type":"VEC3"
		},
		{
			"bufferView":6,
			"componentType":5126,
			"count":592,
			"type":"VEC2"
		},
		{
			"bufferView":7,
			"componentType":5126,
			"count":592,
			"max":[
				0.9833604097366333,
				1.294043779373169,
				1.0171643495559692
			],
			"min":[
				-1.0246906280517578,
				-0.05013379827141762,
				-0.9895562529563904
			],
			"type":"VEC3"
		},
		{
			"bufferView":8,
			"componentType":5126,
			"count":592,
			"type":"VEC3"
		},
		{
			"bufferView":9,
			"componentType":5126,
			"count":592,
			"type":"VEC2"
		},
		{
			"bufferView":10,
			"componentType":5126,
			"count":592,
			"max":[
				0.9833604097366333,
				1.535859227180481,
				1.0171643495559692
			],
			"min":[
				-1.0246906280517578,
				-0.05013379827141762,
				-0.9895562529563904
			],
			"type":"VEC3"
		},
		{
			"bufferView":11,
			"componentType":5126,
			"count":592,
			"type":"VEC3"
		},
		{
			"bufferView":12,
			"componentType":5126,
			"count":592,
			"type":"VEC2"
		},
		{
			"bufferView":13,
			"componentType":5126,
			"count":160,
			"max":[
				0.538773238658905,
				4.078545093536377,
				4.2909932136535645
			],
			"min":[
				-1.722699522972107,
				-0.3323962688446045,
				0.4983663558959961
			],
			"type":"VEC3"
		},
		{
			"bufferView":14,
			"componentType":5126,
			"count":160,
			"type":"VEC3"
		},
		{
			"bufferView":15,
			"componentType":5126,
			"count":160,
			"type":"VEC2"
		},
		{
			"bufferView":16,
			"componentType":5123,
			"count":768,
			"type":"SCALAR"
		},
		{
			"bufferView":17,
			"componentType":5126,
			"count":160,
			"max":[
				0.538773238658905,
				4.078545093536377,
				4.2909932136535645
			],
			"min":[
				-1.722699522972107,
				-0.3323962688446045,
				0.4983663558959961
			],
			"type":"VEC3"
		},
		{
			"bufferView":18,
			"componentType":5126,
			"count":160,
			"type":"VEC3"
		},
		{
			"bufferView":19,
			"componentType":5126,
			"count":160,
			"type":"VEC2"
		},
		{
			"bufferView":20,
			"componentType":5126,
			"count":160,
			"max":[
				0.5427629351615906,
				4.002396583557129,
				4.68145751953125
			],
			"min":[
				-1.5668119192123413,
				-0.21656453609466553,
				0.7498422265052795
			],
			"type":"VEC3"
		},
		{
			"bufferView":21,
			"componentType":5126,
			"count":160,
			"type":"VEC3"
		},
		{
			"bufferView":22,
			"componentType":5126,
			"count":160,
			"type":"VEC2"
		},
		{
			"bufferView":23,
			"componentType":5126,
			"count":256,
			"max":[
				1.4766020774841309,
				5.131323337554932,
				1.4889097213745117
			],
			"min":[
				-1.4889097213745117,
				-0.17821146547794342,
				-1.4889097213745117
			],
			"type":"VEC3"
		},
		{
			"bufferView":24,
			"componentType":5126,
			"count":256,
			"type":"VEC3"
		},
		{
			"bufferView":25,
			"componentType":5126,
			"count":256,
			"type":"VEC2"
		},
		{
			"bufferView":26,
			"componentType":5123,
			"count":1344,
			"type":"SCALAR"
		}
	],
	"bufferViews":[
		{
			"buffer":0,
			"byteLength":7104,
			"byteOffset":0,
			"target":34962
		},
		{
			"buffer":0,
			"byteLength":7104,
			"byteOffset":7104,
			"target":34962
		},
		{
			"buffer":0,
			"byteLength":4736,
			"byteOffset":14208,
			"target":34962
		},
		{
			"buffer":0,
			"byteLength":6144,
			"byteOffset":18944,
			"target":34963
		},
		{
			"buffer":0,
			"byteLength":7104,
			"byteOffset":25088,
			"target":34962
		},
		{
			"buffer":0,
			"byteLength":7104,
			"byteOffset":32192,
			"target":34962
		},
		{
			"buffer":0,
			"byteLength":4736,
			"byteOffset":39296,
			"target":34962
		},
		{
			"buffer":0,
			"byteLength":7104,
			"byteOffset":44032,
			"target":34962
		},
		{
			"buffer":0,
			"byteLength":7104,
			"byteOffset":51136,
			"target":34962
		},
		{
			"buffer":0,
			"byteLength":4736,
			"byteOffset":58240,
			"target":34962
		},
		{
			"buffer":0,
			"byteLength":7104,
			"byteOffset":62976,
			"target":34962
		},
		{
			"buffer":0,
			"byteLength":7104,
			"byteOffset":70080,
			"target":34962
		},
		{
			"buffer":0,
			"byteLength":4736,
			"byteOffset":77184,
			"target":34962
		},
		{
			"buffer":0,
			"byteLength":1920,
			"byteOffset":81920,
			"target":34962
		},
		{
			"buffer":0,
			"byteLength":1920,
			"byteOffset":83840,
			"target":34962
		},
		{
			"buffer":0,
			"byteLength":1280,
			"byteOffset":85760,
			"target":34962
		},
		{
			"buffer":0,
			"byteLength":1536,
			"byteOffset":87040,
			"target":34963
		},
		{
			"buffer":0,
			"byteLength":1920,
			"byteOffset":88576,
			"target":34962
		},
		{
			"buffer":0,
			"byteLength":1920,
			"byteOffset":90496,
			"target":34962
		},
		{
			"buffer":0,
			"byteLength":1280,
			"byteOffset":92416,
			"target":34962
		},
		{
			"buffer":0,
			"byteLength":1920,
			"byteOffset":93696,
			"target":34962
		},
		{
			"buffer":0,
			"byteLength":1920,
			"byteOffset":95616,
			"target":34962
		},
		{
			"buffer":0,
			"byteLength":1280,
			"byteOffset":97536,
			"target":34962
		},
		{
			"buffer":0,
			"byteLength":3072,
			"byteOffset":98816,
			"target":34962
		},
		{
			"buffer":0,
			"byteLength":3072,
			"byteOffset":101888,
			"target":34962
		},
		{
			"buffer":0,
			"byteLength":2048,
			"byteOffset":104960,
			"target":34962
		},
		{
			"buffer":0,
			"byteLength":2688,
			"byteOffset":107008,
			"target":34963
		}
	],
	"buffers":[
		{
			"byteLength":109696,
			"uri":"champginon.bin"
		}
	]
}
